<?xml version="1.0" encoding="UTF-8"?> <svg xmlns="http://www.w3.org/2000/svg" width="335" height="160" viewBox="0 0 335 160" fill="none"> <rect width="335" height="160" fill="#120D27"></rect> <path d="M51 58C51 49.1634 58.1634 42 67 42H149V160H51V58Z" fill="url(#paint0_linear_273_2197)"></path> <path d="M81 33C81 24.1634 88.1634 17 97 17H335V160H81V33Z" fill="url(#paint1_linear_273_2197)"></path> <path opacity="0.5" d="M271 90.9998L271 156" stroke="url(#paint2_linear_273_2197)" stroke-dasharray="1 1"></path> <path opacity="0.5" d="M121 139H335" stroke="url(#paint3_linear_273_2197)"></path> <path d="M99.6993 142V136.896L98.6153 137.548V136.888L99.6993 136.24H100.295V142H99.6993ZM101.052 142.836L101.088 142.544C101.195 142.552 101.272 142.531 101.32 142.48C101.368 142.429 101.398 142.361 101.408 142.276C101.419 142.191 101.422 142.099 101.416 142H101.052V141.156H101.736V142.16C101.736 142.405 101.674 142.589 101.548 142.712C101.426 142.835 101.26 142.876 101.052 142.836ZM104.597 142.12C104.299 142.12 104.023 142.059 103.769 141.936C103.516 141.813 103.3 141.644 103.121 141.428C102.943 141.212 102.815 140.964 102.737 140.684L103.301 140.532C103.352 140.74 103.444 140.92 103.577 141.072C103.711 141.221 103.867 141.337 104.045 141.42C104.227 141.503 104.416 141.544 104.613 141.544C104.869 141.544 105.099 141.483 105.301 141.36C105.507 141.235 105.669 141.069 105.789 140.864C105.909 140.659 105.969 140.433 105.969 140.188C105.969 139.935 105.907 139.707 105.781 139.504C105.656 139.299 105.491 139.136 105.285 139.016C105.08 138.896 104.856 138.836 104.613 138.836C104.341 138.836 104.107 138.896 103.909 139.016C103.712 139.133 103.555 139.281 103.437 139.46L102.901 139.236L103.077 136.24H106.153V136.804H103.337L103.629 136.528L103.473 139.084L103.325 138.888C103.491 138.699 103.691 138.551 103.925 138.444C104.16 138.337 104.407 138.284 104.665 138.284C105.02 138.284 105.34 138.369 105.625 138.54C105.911 138.708 106.137 138.936 106.305 139.224C106.473 139.512 106.557 139.833 106.557 140.188C106.557 140.54 106.468 140.863 106.289 141.156C106.111 141.447 105.873 141.68 105.577 141.856C105.281 142.032 104.955 142.12 104.597 142.12ZM109.034 142.12C108.68 142.12 108.36 142.037 108.074 141.872C107.792 141.707 107.568 141.483 107.402 141.2C107.237 140.915 107.154 140.595 107.154 140.24V138C107.154 137.645 107.237 137.327 107.402 137.044C107.568 136.759 107.792 136.533 108.074 136.368C108.36 136.203 108.68 136.12 109.034 136.12C109.389 136.12 109.708 136.203 109.99 136.368C110.276 136.533 110.501 136.759 110.666 137.044C110.832 137.327 110.914 137.645 110.914 138V140.24C110.914 140.595 110.832 140.915 110.666 141.2C110.501 141.483 110.276 141.707 109.99 141.872C109.708 142.037 109.389 142.12 109.034 142.12ZM109.034 141.552C109.272 141.552 109.488 141.495 109.682 141.38C109.877 141.263 110.032 141.107 110.146 140.912C110.261 140.717 110.318 140.503 110.318 140.268V137.972C110.318 137.735 110.261 137.519 110.146 137.324C110.032 137.129 109.877 136.975 109.682 136.86C109.488 136.743 109.272 136.684 109.034 136.684C108.797 136.684 108.581 136.743 108.386 136.86C108.192 136.975 108.037 137.129 107.922 137.324C107.808 137.519 107.75 137.735 107.75 137.972V140.268C107.75 140.503 107.808 140.717 107.922 140.912C108.037 141.107 108.192 141.263 108.386 141.38C108.581 141.495 108.797 141.552 109.034 141.552ZM113.557 142.12C113.203 142.12 112.883 142.037 112.597 141.872C112.315 141.707 112.091 141.483 111.925 141.2C111.76 140.915 111.677 140.595 111.677 140.24V138C111.677 137.645 111.76 137.327 111.925 137.044C112.091 136.759 112.315 136.533 112.597 136.368C112.883 136.203 113.203 136.12 113.557 136.12C113.912 136.12 114.231 136.203 114.513 136.368C114.799 136.533 115.024 136.759 115.189 137.044C115.355 137.327 115.437 137.645 115.437 138V140.24C115.437 140.595 115.355 140.915 115.189 141.2C115.024 141.483 114.799 141.707 114.513 141.872C114.231 142.037 113.912 142.12 113.557 142.12ZM113.557 141.552C113.795 141.552 114.011 141.495 114.205 141.38C114.4 141.263 114.555 141.107 114.669 140.912C114.784 140.717 114.841 140.503 114.841 140.268V137.972C114.841 137.735 114.784 137.519 114.669 137.324C114.555 137.129 114.4 136.975 114.205 136.86C114.011 136.743 113.795 136.684 113.557 136.684C113.32 136.684 113.104 136.743 112.909 136.86C112.715 136.975 112.56 137.129 112.445 137.324C112.331 137.519 112.273 137.735 112.273 137.972V140.268C112.273 140.503 112.331 140.717 112.445 140.912C112.56 141.107 112.715 141.263 112.909 141.38C113.104 141.495 113.32 141.552 113.557 141.552Z" fill="#6B667D"></path> <path opacity="0.5" d="M121 109H335" stroke="url(#paint4_linear_273_2197)"></path> <path d="M99.9649 112V106.896L98.8809 107.548V106.888L99.9649 106.24H100.561V112H99.9649ZM101.318 112.836L101.354 112.544C101.46 112.552 101.538 112.531 101.586 112.48C101.634 112.429 101.663 112.361 101.674 112.276C101.684 112.191 101.687 112.099 101.682 112H101.318V111.156H102.002V112.16C102.002 112.405 101.939 112.589 101.814 112.712C101.691 112.835 101.526 112.876 101.318 112.836ZM104.863 112.12C104.564 112.12 104.288 112.059 104.035 111.936C103.781 111.813 103.565 111.644 103.387 111.428C103.208 111.212 103.08 110.964 103.003 110.684L103.567 110.532C103.617 110.74 103.709 110.92 103.843 111.072C103.976 111.221 104.132 111.337 104.311 111.42C104.492 111.503 104.681 111.544 104.879 111.544C105.135 111.544 105.364 111.483 105.567 111.36C105.772 111.235 105.935 111.069 106.055 110.864C106.175 110.659 106.235 110.433 106.235 110.188C106.235 109.935 106.172 109.707 106.047 109.504C105.921 109.299 105.756 109.136 105.551 109.016C105.345 108.896 105.121 108.836 104.879 108.836C104.607 108.836 104.372 108.896 104.175 109.016C103.977 109.133 103.82 109.281 103.703 109.46L103.167 109.236L103.343 106.24H106.419V106.804H103.603L103.895 106.528L103.739 109.084L103.591 108.888C103.756 108.699 103.956 108.551 104.191 108.444C104.425 108.337 104.672 108.284 104.931 108.284C105.285 108.284 105.605 108.369 105.891 108.54C106.176 108.708 106.403 108.936 106.571 109.224C106.739 109.512 106.823 109.833 106.823 110.188C106.823 110.54 106.733 110.863 106.555 111.156C106.376 111.447 106.139 111.68 105.843 111.856C105.547 112.032 105.22 112.12 104.863 112.12ZM109.12 112.12C108.821 112.12 108.545 112.059 108.292 111.936C108.039 111.813 107.823 111.644 107.644 111.428C107.465 111.212 107.337 110.964 107.26 110.684L107.824 110.532C107.875 110.74 107.967 110.92 108.1 111.072C108.233 111.221 108.389 111.337 108.568 111.42C108.749 111.503 108.939 111.544 109.136 111.544C109.392 111.544 109.621 111.483 109.824 111.36C110.029 111.235 110.192 111.069 110.312 110.864C110.432 110.659 110.492 110.433 110.492 110.188C110.492 109.935 110.429 109.707 110.304 109.504C110.179 109.299 110.013 109.136 109.808 109.016C109.603 108.896 109.379 108.836 109.136 108.836C108.864 108.836 108.629 108.896 108.432 109.016C108.235 109.133 108.077 109.281 107.96 109.46L107.424 109.236L107.6 106.24H110.676V106.804H107.86L108.152 106.528L107.996 109.084L107.848 108.888C108.013 108.699 108.213 108.551 108.448 108.444C108.683 108.337 108.929 108.284 109.188 108.284C109.543 108.284 109.863 108.369 110.148 108.54C110.433 108.708 110.66 108.936 110.828 109.224C110.996 109.512 111.08 109.833 111.08 110.188C111.08 110.54 110.991 110.863 110.812 111.156C110.633 111.447 110.396 111.68 110.1 111.856C109.804 112.032 109.477 112.12 109.12 112.12ZM113.557 112.12C113.203 112.12 112.883 112.037 112.597 111.872C112.315 111.707 112.091 111.483 111.925 111.2C111.76 110.915 111.677 110.595 111.677 110.24V108C111.677 107.645 111.76 107.327 111.925 107.044C112.091 106.759 112.315 106.533 112.597 106.368C112.883 106.203 113.203 106.12 113.557 106.12C113.912 106.12 114.231 106.203 114.513 106.368C114.799 106.533 115.024 106.759 115.189 107.044C115.355 107.327 115.437 107.645 115.437 108V110.24C115.437 110.595 115.355 110.915 115.189 111.2C115.024 111.483 114.799 111.707 114.513 111.872C114.231 112.037 113.912 112.12 113.557 112.12ZM113.557 111.552C113.795 111.552 114.011 111.495 114.205 111.38C114.4 111.263 114.555 111.107 114.669 110.912C114.784 110.717 114.841 110.503 114.841 110.268V107.972C114.841 107.735 114.784 107.519 114.669 107.324C114.555 107.129 114.4 106.975 114.205 106.86C114.011 106.743 113.795 106.684 113.557 106.684C113.32 106.684 113.104 106.743 112.909 106.86C112.715 106.975 112.56 107.129 112.445 107.324C112.331 107.519 112.273 107.735 112.273 107.972V110.268C112.273 110.503 112.331 110.717 112.445 110.912C112.56 111.107 112.715 111.263 112.909 111.38C113.104 111.495 113.32 111.552 113.557 111.552Z" fill="#6B667D"></path> <path opacity="0.5" d="M121 79H335" stroke="url(#paint5_linear_273_2197)"></path> <path d="M99.3556 82V76.896L98.2716 77.548V76.888L99.3556 76.24H99.9516V82H99.3556ZM100.708 82.836L100.744 82.544C100.851 82.552 100.928 82.5307 100.976 82.48C101.024 82.4293 101.054 82.3613 101.064 82.276C101.075 82.1907 101.078 82.0987 101.072 82H100.708V81.156H101.392V82.16C101.392 82.4053 101.33 82.5893 101.204 82.712C101.082 82.8347 100.916 82.876 100.708 82.836ZM104.501 82.12C104.141 82.12 103.813 82.0333 103.517 81.86C103.224 81.684 102.989 81.4467 102.813 81.148C102.64 80.8467 102.553 80.508 102.553 80.132V78.136C102.553 77.7493 102.64 77.4053 102.813 77.104C102.987 76.8 103.223 76.5613 103.521 76.388C103.823 76.212 104.164 76.124 104.545 76.124C104.873 76.124 105.177 76.196 105.457 76.34C105.74 76.484 105.971 76.6853 106.149 76.944L105.697 77.316C105.575 77.124 105.412 76.9707 105.209 76.856C105.007 76.7413 104.785 76.684 104.545 76.684C104.276 76.684 104.036 76.7493 103.825 76.88C103.615 77.0107 103.449 77.1827 103.329 77.396C103.209 77.6067 103.149 77.836 103.149 78.084V79.34L103.001 79.172C103.169 78.908 103.389 78.6947 103.661 78.532C103.936 78.3693 104.235 78.288 104.557 78.288C104.915 78.288 105.236 78.3733 105.521 78.544C105.807 78.712 106.033 78.94 106.201 79.228C106.369 79.516 106.453 79.8387 106.453 80.196C106.453 80.5507 106.364 80.8733 106.185 81.164C106.009 81.4547 105.773 81.6867 105.477 81.86C105.184 82.0333 104.859 82.12 104.501 82.12ZM104.501 81.548C104.752 81.548 104.98 81.488 105.185 81.368C105.393 81.248 105.557 81.0853 105.677 80.88C105.8 80.6747 105.861 80.4467 105.861 80.196C105.861 79.9453 105.8 79.7173 105.677 79.512C105.557 79.304 105.395 79.14 105.189 79.02C104.984 78.8973 104.756 78.836 104.505 78.836C104.255 78.836 104.027 78.8973 103.821 79.02C103.616 79.14 103.452 79.304 103.329 79.512C103.209 79.7173 103.149 79.9453 103.149 80.196C103.149 80.444 103.209 80.6707 103.329 80.876C103.449 81.0813 103.612 81.2453 103.817 81.368C104.023 81.488 104.251 81.548 104.501 81.548ZM109.034 82.12C108.68 82.12 108.36 82.0373 108.074 81.872C107.792 81.7067 107.568 81.4827 107.402 81.2C107.237 80.9147 107.154 80.5947 107.154 80.24V78C107.154 77.6453 107.237 77.3267 107.402 77.044C107.568 76.7587 107.792 76.5333 108.074 76.368C108.36 76.2027 108.68 76.12 109.034 76.12C109.389 76.12 109.708 76.2027 109.99 76.368C110.276 76.5333 110.501 76.7587 110.666 77.044C110.832 77.3267 110.914 77.6453 110.914 78V80.24C110.914 80.5947 110.832 80.9147 110.666 81.2C110.501 81.4827 110.276 81.7067 109.99 81.872C109.708 82.0373 109.389 82.12 109.034 82.12ZM109.034 81.552C109.272 81.552 109.488 81.4947 109.682 81.38C109.877 81.2627 110.032 81.1067 110.146 80.912C110.261 80.7173 110.318 80.5027 110.318 80.268V77.972C110.318 77.7347 110.261 77.5187 110.146 77.324C110.032 77.1293 109.877 76.9747 109.682 76.86C109.488 76.7427 109.272 76.684 109.034 76.684C108.797 76.684 108.581 76.7427 108.386 76.86C108.192 76.9747 108.037 77.1293 107.922 77.324C107.808 77.5187 107.75 77.7347 107.75 77.972V80.268C107.75 80.5027 107.808 80.7173 107.922 80.912C108.037 81.1067 108.192 81.2627 108.386 81.38C108.581 81.4947 108.797 81.552 109.034 81.552ZM113.557 82.12C113.203 82.12 112.883 82.0373 112.597 81.872C112.315 81.7067 112.091 81.4827 111.925 81.2C111.76 80.9147 111.677 80.5947 111.677 80.24V78C111.677 77.6453 111.76 77.3267 111.925 77.044C112.091 76.7587 112.315 76.5333 112.597 76.368C112.883 76.2027 113.203 76.12 113.557 76.12C113.912 76.12 114.231 76.2027 114.513 76.368C114.799 76.5333 115.024 76.7587 115.189 77.044C115.355 77.3267 115.437 77.6453 115.437 78V80.24C115.437 80.5947 115.355 80.9147 115.189 81.2C115.024 81.4827 114.799 81.7067 114.513 81.872C114.231 82.0373 113.912 82.12 113.557 82.12ZM113.557 81.552C113.795 81.552 114.011 81.4947 114.205 81.38C114.4 81.2627 114.555 81.1067 114.669 80.912C114.784 80.7173 114.841 80.5027 114.841 80.268V77.972C114.841 77.7347 114.784 77.5187 114.669 77.324C114.555 77.1293 114.4 76.9747 114.205 76.86C114.011 76.7427 113.795 76.684 113.557 76.684C113.32 76.684 113.104 76.7427 112.909 76.86C112.715 76.9747 112.56 77.1293 112.445 77.324C112.331 77.5187 112.273 77.7347 112.273 77.972V80.268C112.273 80.5027 112.331 80.7173 112.445 80.912C112.56 81.1067 112.715 81.2627 112.909 81.38C113.104 81.4947 113.32 81.552 113.557 81.552Z" fill="#6B667D"></path> <path d="M94 155.139L101.424 153.222C102.73 152.885 103.929 152.224 104.91 151.299L127.933 129.608C129.418 128.209 131.38 127.431 133.419 127.431H157.555C160.455 127.431 163.128 125.861 164.541 123.329L176.147 102.53C177.463 100.172 179.88 98.6363 182.574 98.4477L202.035 97.0851C204.548 96.9091 206.832 95.5598 208.198 93.4434L208.68 92.6964C211.583 88.1994 217.998 87.7665 221.479 91.8327L237.654 110.728C240.663 114.243 246.017 114.48 249.325 111.245L267.991 92.9913C269.026 91.979 270.316 91.2667 271.724 90.9301L298.912 84.4308C300.926 83.9495 302.674 82.7064 303.79 80.9627L318.048 58.6873C319.519 56.3898 322.058 55 324.786 55H335" stroke="url(#paint6_linear_273_2197)" stroke-width="2"></path> <path d="M112 54C118.627 54 124 48.6274 124 42C124 35.3726 118.627 30 112 30C105.373 30 100 35.3726 100 42C100 48.6274 105.373 54 112 54Z" fill="#627EEA"></path> <path d="M112 33V39.6525L117.623 42.165L112 33Z" fill="white" fill-opacity="0.602"></path> <path d="M112.373 33L106.75 42.165L112.373 39.6525V33Z" fill="white"></path> <path d="M112 46.764V51.2843L117.627 43.5L112 46.764Z" fill="white" fill-opacity="0.602"></path> <path d="M112.373 51.2843V46.7633L106.75 43.5L112.373 51.2843Z" fill="white"></path> <path d="M112 45.5258L117.623 42.261L112 39.75V45.5258Z" fill="white" fill-opacity="0.2"></path> <path d="M106.75 42.261L112.373 45.5258V39.75L106.75 42.261Z" fill="white" fill-opacity="0.602"></path> <path d="M132.585 49V35.9091H140.486V37.3153H134.17V41.7386H140.077V43.1449H134.17V47.5938H140.588V49H132.585ZM142.627 37.3153V35.9091H152.445V37.3153H148.329V49H146.744V37.3153H142.627ZM154.892 49V35.9091H156.477V41.7386H163.457V35.9091H165.042V49H163.457V43.1449H156.477V49H154.892Z" fill="white"></path> <circle cx="271" cy="91" r="4" fill="#6CC92E"></circle> <circle cx="271" cy="91" r="7.5" stroke="#6CC92E" stroke-opacity="0.25" stroke-width="7"></circle> <circle cx="271" cy="91" r="2" fill="white"></circle> <path d="M218 38V46C218 50.4152 214.415 54 210 54H182C177.585 54 174 50.4152 174 46V38C174 33.5848 177.585 30 182 30H210C214.415 30 218 33.5848 218 38Z" fill="#2D2844"></path> <path d="M195.143 37.1145V45.8418H194.087V38.2225H194.036L191.905 39.6373V38.5634L194.087 37.1145H195.143ZM200.5 45.9611C199.858 45.9611 199.311 45.7864 198.859 45.437C198.408 45.0847 198.063 44.5748 197.824 43.9071C197.585 43.2367 197.466 42.427 197.466 41.4782C197.466 40.535 197.585 39.7296 197.824 39.062C198.065 38.3915 198.412 37.8801 198.864 37.5279C199.318 37.1728 199.864 36.9952 200.5 36.9952C201.136 36.9952 201.68 37.1728 202.132 37.5279C202.587 37.8801 202.933 38.3915 203.172 39.062C203.413 39.7296 203.534 40.535 203.534 41.4782C203.534 42.427 203.415 43.2367 203.176 43.9071C202.938 44.5748 202.592 45.0847 202.141 45.437C201.689 45.7864 201.142 45.9611 200.5 45.9611ZM200.5 45.0236C201.136 45.0236 201.631 44.7168 201.983 44.1032C202.335 43.4895 202.511 42.6145 202.511 41.4782C202.511 40.7225 202.43 40.079 202.268 39.5478C202.109 39.0165 201.879 38.6117 201.578 38.3333C201.28 38.0549 200.92 37.9157 200.5 37.9157C199.869 37.9157 199.376 38.2267 199.021 38.8489C198.666 39.4682 198.489 40.3446 198.489 41.4782C198.489 42.2338 198.568 42.8759 198.727 43.4043C198.886 43.9327 199.115 44.3347 199.413 44.6103C199.714 44.8858 200.077 45.0236 200.5 45.0236ZM209.602 44.2054V43.7452C209.602 43.427 209.668 43.1358 209.798 42.8716C209.932 42.6046 210.125 42.3915 210.378 42.2324C210.634 42.0705 210.943 41.9895 211.307 41.9895C211.676 41.9895 211.986 42.0705 212.236 42.2324C212.486 42.3915 212.675 42.6046 212.803 42.8716C212.93 43.1358 212.994 43.427 212.994 43.7452V44.2054C212.994 44.5236 212.929 44.8162 212.798 45.0833C212.67 45.3475 212.48 45.5605 212.227 45.7225C211.977 45.8816 211.67 45.9611 211.307 45.9611C210.938 45.9611 210.626 45.8816 210.374 45.7225C210.121 45.5605 209.929 45.3475 209.798 45.0833C209.668 44.8162 209.602 44.5236 209.602 44.2054ZM210.472 43.7452V44.2054C210.472 44.4696 210.534 44.7069 210.659 44.9171C210.784 45.1245 211 45.2282 211.307 45.2282C211.605 45.2282 211.815 45.1245 211.938 44.9171C212.062 44.7069 212.125 44.4696 212.125 44.2054V43.7452C212.125 43.481 212.065 43.2452 211.946 43.0378C211.827 42.8276 211.614 42.7225 211.307 42.7225C211.009 42.7225 210.794 42.8276 210.663 43.0378C210.536 43.2452 210.472 43.481 210.472 43.7452ZM205.256 39.2111V38.7509C205.256 38.4327 205.321 38.1415 205.452 37.8773C205.585 37.6103 205.778 37.3972 206.031 37.2381C206.287 37.0762 206.597 36.9952 206.96 36.9952C207.33 36.9952 207.639 37.0762 207.889 37.2381C208.139 37.3972 208.328 37.6103 208.456 37.8773C208.584 38.1415 208.648 38.4327 208.648 38.7509V39.2111C208.648 39.5293 208.582 39.8219 208.452 40.089C208.324 40.3532 208.134 40.5662 207.881 40.7282C207.631 40.8873 207.324 40.9668 206.96 40.9668C206.591 40.9668 206.28 40.8873 206.027 40.7282C205.774 40.5662 205.582 40.3532 205.452 40.089C205.321 39.8219 205.256 39.5293 205.256 39.2111ZM206.125 38.7509V39.2111C206.125 39.4753 206.188 39.7125 206.312 39.9228C206.438 40.1301 206.653 40.2338 206.96 40.2338C207.259 40.2338 207.469 40.1301 207.591 39.9228C207.716 39.7125 207.778 39.4753 207.778 39.2111V38.7509C207.778 38.4867 207.719 38.2509 207.599 38.0435C207.48 37.8333 207.267 37.7282 206.96 37.7282C206.662 37.7282 206.447 37.8333 206.317 38.0435C206.189 38.2509 206.125 38.4867 206.125 38.7509ZM205.58 45.8418L211.58 37.1145H212.551L206.551 45.8418H205.58Z" fill="white"></path> <path d="M183.742 36.9053L178.68 44.8423H188.742L183.742 36.9053Z" fill="#20C997"></path> <defs> <linearGradient id="paint0_linear_273_2197" x1="53.19" y1="29.7083" x2="123.237" y2="77.3984" gradientUnits="userSpaceOnUse"> <stop stop-color="#393253"></stop> <stop offset="1" stop-color="#120D27" stop-opacity="0"></stop> </linearGradient> <linearGradient id="paint1_linear_273_2197" x1="104.906" y1="48" x2="159.499" y2="138.083" gradientUnits="userSpaceOnUse"> <stop stop-color="#393253"></stop> <stop offset="1" stop-color="#120D27" stop-opacity="0"></stop> </linearGradient> <linearGradient id="paint2_linear_273_2197" x1="272.5" y1="118.5" x2="272.516" y2="155.992" gradientUnits="userSpaceOnUse"> <stop stop-color="#5F5B71"></stop> <stop offset="1" stop-color="#5F5B71" stop-opacity="0"></stop> </linearGradient> <linearGradient id="paint3_linear_273_2197" x1="93.5214" y1="139" x2="318.346" y2="139" gradientUnits="userSpaceOnUse"> <stop stop-color="#6C687E"></stop> <stop offset="1" stop-color="#6C687E" stop-opacity="0.29"></stop> </linearGradient> <linearGradient id="paint4_linear_273_2197" x1="93.5214" y1="109" x2="318.346" y2="109" gradientUnits="userSpaceOnUse"> <stop stop-color="#6C687E"></stop> <stop offset="1" stop-color="#6C687E" stop-opacity="0.29"></stop> </linearGradient> <linearGradient id="paint5_linear_273_2197" x1="93.5214" y1="79" x2="318.346" y2="79.0001" gradientUnits="userSpaceOnUse"> <stop stop-color="#6C687E"></stop> <stop offset="1" stop-color="#6C687E" stop-opacity="0.29"></stop> </linearGradient> <linearGradient id="paint6_linear_273_2197" x1="113.77" y1="118.681" x2="336.575" y2="41.5639" gradientUnits="userSpaceOnUse"> <stop stop-color="#20C997" stop-opacity="0"></stop> <stop offset="0.226842" stop-color="#20C997"></stop> <stop offset="0.691202" stop-color="#75C920"></stop> <stop offset="1" stop-color="#75C920" stop-opacity="0"></stop> </linearGradient> </defs> </svg> 