<?xml version="1.0" encoding="UTF-8"?> <svg xmlns="http://www.w3.org/2000/svg" width="335" height="160" viewBox="0 0 335 160" fill="none"> <rect width="335" height="160" fill="#120D27"></rect> <path d="M221 56C221 47.1634 228.163 40 237 40H288C296.837 40 304 47.1634 304 56V159H221V56Z" fill="url(#paint0_linear_274_2010)"></path> <path d="M36 56C36 47.1634 43.1634 40 52 40H103C111.837 40 119 47.1634 119 56V159H36V56Z" fill="url(#paint1_linear_274_2010)"></path> <path d="M68 33C68 24.1634 75.1634 17 84 17H252C260.837 17 268 24.1634 268 33V160H68V33Z" fill="url(#paint2_linear_274_2010)"></path> <path d="M124.395 34.1818H126.078L128.643 38.6451H128.748L131.313 34.1818H132.996L129.434 40.1456V44H127.957V40.1456L124.395 34.1818ZM136.168 44.1486C135.478 44.1486 134.875 43.9904 134.361 43.674C133.846 43.3576 133.447 42.915 133.162 42.3461C132.878 41.7772 132.736 41.1124 132.736 40.3517C132.736 39.5879 132.878 38.9199 133.162 38.3478C133.447 37.7757 133.846 37.3315 134.361 37.0151C134.875 36.6987 135.478 36.5405 136.168 36.5405C136.858 36.5405 137.461 36.6987 137.975 37.0151C138.49 37.3315 138.89 37.7757 139.174 38.3478C139.458 38.9199 139.601 39.5879 139.601 40.3517C139.601 41.1124 139.458 41.7772 139.174 42.3461C138.89 42.915 138.49 43.3576 137.975 43.674C137.461 43.9904 136.858 44.1486 136.168 44.1486ZM136.173 42.9453C136.62 42.9453 136.991 42.8271 137.285 42.5906C137.579 42.354 137.796 42.0392 137.937 41.6461C138.081 41.253 138.153 40.82 138.153 40.3469C138.153 39.8771 138.081 39.4457 137.937 39.0526C137.796 38.6562 137.579 38.3382 137.285 38.0985C136.991 37.8588 136.62 37.739 136.173 37.739C135.722 37.739 135.348 37.8588 135.051 38.0985C134.757 38.3382 134.538 38.6562 134.394 39.0526C134.254 39.4457 134.183 39.8771 134.183 40.3469C134.183 40.82 134.254 41.253 134.394 41.6461C134.538 42.0392 134.757 42.354 135.051 42.5906C135.348 42.8271 135.722 42.9453 136.173 42.9453ZM145.865 40.9462V36.6364H147.303V44H145.894V42.7248H145.817C145.648 43.1179 145.376 43.4455 145.002 43.7076C144.632 43.9664 144.17 44.0959 143.617 44.0959C143.144 44.0959 142.725 43.992 142.361 43.7843C142 43.5733 141.715 43.2617 141.507 42.8494C141.303 42.4371 141.201 41.9274 141.201 41.3201V36.6364H142.634V41.1475C142.634 41.6493 142.773 42.0488 143.051 42.3461C143.329 42.6433 143.69 42.7919 144.135 42.7919C144.403 42.7919 144.67 42.7248 144.935 42.5906C145.204 42.4563 145.426 42.2534 145.602 41.9817C145.781 41.71 145.868 41.3649 145.865 40.9462ZM149.229 44V36.6364H150.615V37.8061H150.692C150.826 37.4098 151.062 37.0982 151.401 36.8713C151.743 36.6412 152.13 36.5261 152.561 36.5261C152.651 36.5261 152.756 36.5293 152.878 36.5357C153.002 36.5421 153.1 36.5501 153.17 36.5597V37.9308C153.113 37.9148 153.01 37.8972 152.863 37.878C152.716 37.8556 152.569 37.8445 152.422 37.8445C152.084 37.8445 151.781 37.9164 151.516 38.0602C151.254 38.2008 151.046 38.3974 150.893 38.6499C150.74 38.8991 150.663 39.1836 150.663 39.5032V44H149.229ZM157.983 46.7614V36.6364H159.383V37.8301H159.503C159.586 37.6767 159.706 37.4993 159.863 37.2979C160.019 37.0966 160.237 36.9208 160.515 36.7706C160.793 36.6172 161.16 36.5405 161.617 36.5405C162.212 36.5405 162.742 36.6907 163.209 36.9911C163.675 37.2915 164.041 37.7246 164.307 38.2903C164.575 38.856 164.709 39.5368 164.709 40.3326C164.709 41.1284 164.577 41.8107 164.312 42.3796C164.046 42.9453 163.682 43.3816 163.218 43.6884C162.755 43.992 162.226 44.1438 161.632 44.1438C161.184 44.1438 160.818 44.0687 160.534 43.9185C160.253 43.7683 160.032 43.5925 159.872 43.3912C159.712 43.1898 159.589 43.0108 159.503 42.8542H159.417V46.7614H157.983ZM159.388 40.3182C159.388 40.8359 159.463 41.2898 159.613 41.6797C159.764 42.0696 159.981 42.3748 160.265 42.5953C160.55 42.8127 160.898 42.9213 161.31 42.9213C161.739 42.9213 162.097 42.8079 162.384 42.581C162.672 42.3509 162.889 42.0392 163.036 41.6461C163.187 41.253 163.262 40.8104 163.262 40.3182C163.262 39.8324 163.188 39.3961 163.041 39.0094C162.897 38.6227 162.68 38.3175 162.389 38.0938C162.101 37.87 161.742 37.7582 161.31 37.7582C160.895 37.7582 160.543 37.8652 160.256 38.0794C159.971 38.2935 159.756 38.5923 159.609 38.9759C159.462 39.3594 159.388 39.8068 159.388 40.3182ZM170.98 40.9462V36.6364H172.418V44H171.009V42.7248H170.932C170.763 43.1179 170.491 43.4455 170.117 43.7076C169.746 43.9664 169.285 44.0959 168.732 44.0959C168.259 44.0959 167.84 43.992 167.476 43.7843C167.114 43.5733 166.83 43.2617 166.622 42.8494C166.418 42.4371 166.315 41.9274 166.315 41.3201V36.6364H167.749V41.1475C167.749 41.6493 167.888 42.0488 168.166 42.3461C168.444 42.6433 168.805 42.7919 169.249 42.7919C169.518 42.7919 169.785 42.7248 170.05 42.5906C170.318 42.4563 170.541 42.2534 170.716 41.9817C170.895 41.71 170.983 41.3649 170.98 40.9462ZM174.344 44V36.6364H175.73V37.8061H175.806C175.941 37.4098 176.177 37.0982 176.516 36.8713C176.858 36.6412 177.245 36.5261 177.676 36.5261C177.766 36.5261 177.871 36.5293 177.992 36.5357C178.117 36.5421 178.215 36.5501 178.285 36.5597V37.9308C178.227 37.9148 178.125 37.8972 177.978 37.878C177.831 37.8556 177.684 37.8445 177.537 37.8445C177.198 37.8445 176.896 37.9164 176.631 38.0602C176.369 38.2008 176.161 38.3974 176.008 38.6499C175.854 38.8991 175.778 39.1836 175.778 39.5032V44H174.344ZM182.363 44.1486C181.651 44.1486 181.037 43.9872 180.523 43.6644C180.011 43.3384 179.618 42.8894 179.343 42.3173C179.068 41.7452 178.931 41.09 178.931 40.3517C178.931 39.6039 179.072 38.9439 179.353 38.3718C179.634 37.7965 180.03 37.3475 180.542 37.0247C181.053 36.7019 181.656 36.5405 182.349 36.5405C182.908 36.5405 183.407 36.6444 183.845 36.8521C184.283 37.0566 184.636 37.3443 184.904 37.715C185.176 38.0858 185.337 38.5188 185.388 39.0142H183.993C183.917 38.669 183.741 38.3718 183.466 38.1225C183.194 37.8732 182.83 37.7486 182.373 37.7486C181.974 37.7486 181.624 37.854 181.323 38.065C181.026 38.2727 180.794 38.57 180.628 38.9567C180.462 39.3402 180.379 39.794 180.379 40.3182C180.379 40.8551 180.46 41.3185 180.623 41.7085C180.786 42.0984 181.016 42.4004 181.314 42.6145C181.614 42.8287 181.967 42.9357 182.373 42.9357C182.645 42.9357 182.891 42.8862 183.111 42.7871C183.335 42.6848 183.522 42.5394 183.672 42.3509C183.826 42.1623 183.933 41.9354 183.993 41.6701H185.388C185.337 42.1463 185.182 42.5714 184.923 42.9453C184.665 43.3192 184.318 43.6133 183.883 43.8274C183.452 44.0415 182.945 44.1486 182.363 44.1486ZM188.355 39.6278V44H186.921V34.1818H188.336V37.8349H188.427C188.599 37.4386 188.863 37.1238 189.218 36.8904C189.572 36.6571 190.036 36.5405 190.608 36.5405C191.113 36.5405 191.554 36.6444 191.931 36.8521C192.311 37.0598 192.605 37.3699 192.813 37.7821C193.024 38.1912 193.13 38.7026 193.13 39.3162V44H191.696V39.4888C191.696 38.9487 191.557 38.53 191.279 38.2328C191.001 37.9324 190.614 37.7821 190.119 37.7821C189.78 37.7821 189.477 37.854 189.208 37.9979C188.943 38.1417 188.734 38.3526 188.58 38.6307C188.43 38.9055 188.355 39.2379 188.355 39.6278ZM197.185 44.163C196.719 44.163 196.297 44.0767 195.92 43.9041C195.543 43.7283 195.244 43.4743 195.023 43.1419C194.806 42.8095 194.697 42.402 194.697 41.9194C194.697 41.5039 194.777 41.1619 194.937 40.8935C195.097 40.625 195.313 40.4125 195.584 40.2559C195.856 40.0993 196.159 39.981 196.495 39.9011C196.831 39.8212 197.173 39.7605 197.521 39.7189C197.962 39.6678 198.32 39.6262 198.595 39.5943C198.87 39.5591 199.069 39.5032 199.194 39.4265C199.319 39.3498 199.381 39.2251 199.381 39.0526V39.019C199.381 38.6003 199.263 38.2759 199.026 38.0458C198.793 37.8157 198.445 37.7006 197.981 37.7006C197.499 37.7006 197.118 37.8077 196.84 38.0218C196.565 38.2328 196.375 38.4677 196.27 38.7266L194.923 38.4197C195.082 37.9723 195.316 37.6112 195.623 37.3363C195.933 37.0582 196.289 36.8569 196.692 36.7322C197.094 36.6044 197.518 36.5405 197.962 36.5405C198.256 36.5405 198.568 36.5756 198.897 36.646C199.229 36.7131 199.539 36.8377 199.827 37.0199C200.118 37.2021 200.356 37.4625 200.541 37.8013C200.727 38.1369 200.819 38.5732 200.819 39.1101V44H199.419V42.9933H199.362C199.269 43.1786 199.13 43.3608 198.945 43.5398C198.759 43.7187 198.521 43.8674 198.23 43.9856C197.94 44.1039 197.591 44.163 197.185 44.163ZM197.497 43.0124C197.893 43.0124 198.232 42.9341 198.513 42.7775C198.798 42.6209 199.014 42.4164 199.161 42.1639C199.311 41.9082 199.386 41.6349 199.386 41.3441V40.3949C199.335 40.446 199.236 40.494 199.089 40.5387C198.945 40.5803 198.78 40.617 198.595 40.649C198.409 40.6777 198.229 40.7049 198.053 40.7305C197.877 40.7528 197.73 40.772 197.612 40.788C197.334 40.8232 197.08 40.8823 196.85 40.9654C196.623 41.0485 196.441 41.1683 196.303 41.3249C196.169 41.4783 196.102 41.6829 196.102 41.9386C196.102 42.2933 196.233 42.5618 196.495 42.744C196.757 42.9229 197.091 43.0124 197.497 43.0124ZM208.246 38.4341L206.947 38.6642C206.893 38.498 206.807 38.3398 206.688 38.1896C206.573 38.0394 206.417 37.9164 206.219 37.8205C206.02 37.7246 205.773 37.6767 205.475 37.6767C205.07 37.6767 204.731 37.7678 204.459 37.9499C204.187 38.1289 204.052 38.3606 204.052 38.6451C204.052 38.8912 204.143 39.0893 204.325 39.2395C204.507 39.3897 204.801 39.5128 205.207 39.6087L206.377 39.8771C207.054 40.0337 207.559 40.275 207.892 40.601C208.224 40.927 208.39 41.3505 208.39 41.8714C208.39 42.3125 208.262 42.7056 208.007 43.0508C207.754 43.3928 207.401 43.6612 206.947 43.8562C206.497 44.0511 205.974 44.1486 205.38 44.1486C204.555 44.1486 203.882 43.9728 203.361 43.6213C202.84 43.2665 202.521 42.7631 202.402 42.1112L203.788 41.9002C203.874 42.2614 204.052 42.5346 204.32 42.72C204.589 42.9022 204.939 42.9933 205.37 42.9933C205.84 42.9933 206.215 42.8958 206.497 42.7008C206.778 42.5027 206.918 42.2614 206.918 41.9769C206.918 41.7468 206.832 41.5534 206.66 41.3968C206.49 41.2402 206.23 41.122 205.878 41.0421L204.632 40.7688C203.945 40.6122 203.436 40.3629 203.107 40.021C202.781 39.679 202.618 39.2459 202.618 38.7218C202.618 38.2871 202.74 37.9068 202.983 37.5808C203.225 37.2548 203.561 37.0007 203.989 36.8185C204.418 36.6332 204.908 36.5405 205.461 36.5405C206.257 36.5405 206.883 36.7131 207.34 37.0582C207.797 37.4002 208.099 37.8588 208.246 38.4341ZM213.14 44.1486C212.414 44.1486 211.79 43.9936 211.265 43.6836C210.745 43.3704 210.342 42.9309 210.057 42.3652C209.776 41.7963 209.635 41.13 209.635 40.3661C209.635 39.6119 209.776 38.9471 210.057 38.3718C210.342 37.7965 210.738 37.3475 211.246 37.0247C211.758 36.7019 212.355 36.5405 213.039 36.5405C213.455 36.5405 213.857 36.6092 214.247 36.7466C214.637 36.8841 214.987 37.0998 215.297 37.3938C215.607 37.6879 215.852 38.0698 216.031 38.5396C216.21 39.0062 216.299 39.5735 216.299 40.2415V40.7496H210.446V39.6758H214.895C214.895 39.2987 214.818 38.9647 214.664 38.6738C214.511 38.3798 214.295 38.1481 214.017 37.9787C213.742 37.8093 213.42 37.7246 213.049 37.7246C212.646 37.7246 212.295 37.8237 211.994 38.0218C211.697 38.2168 211.467 38.4725 211.304 38.7889C211.144 39.1021 211.064 39.4425 211.064 39.81V40.649C211.064 41.1412 211.15 41.5598 211.323 41.905C211.499 42.2502 211.743 42.5138 212.056 42.696C212.37 42.875 212.736 42.9645 213.154 42.9645C213.426 42.9645 213.674 42.9261 213.897 42.8494C214.121 42.7695 214.314 42.6513 214.477 42.4947C214.64 42.3381 214.765 42.1447 214.851 41.9146L216.208 42.1591C216.099 42.5586 215.904 42.9086 215.623 43.209C215.345 43.5062 214.995 43.7379 214.573 43.9041C214.155 44.0671 213.677 44.1486 213.14 44.1486Z" fill="white"></path> <rect x="82.875" y="97.5" width="174.375" height="31.5" rx="6.75" fill="#2D2844" fill-opacity="0.5"></rect> <path d="M95.377 104.824V112.188H94.2624V105.938H94.2193L92.4575 107.089V106.025L94.2948 104.824H95.377ZM99.9326 112.31C99.3645 112.307 98.8791 112.158 98.4764 111.86C98.0737 111.563 97.7657 111.13 97.5523 110.562C97.339 109.994 97.2323 109.31 97.2323 108.509C97.2323 107.711 97.339 107.029 97.5523 106.463C97.7681 105.898 98.0773 105.466 98.48 105.169C98.8851 104.872 99.3693 104.723 99.9326 104.723C100.496 104.723 100.979 104.873 101.382 105.173C101.784 105.47 102.092 105.901 102.306 106.467C102.521 107.03 102.629 107.711 102.629 108.509C102.629 109.312 102.523 109.998 102.309 110.566C102.096 111.132 101.788 111.564 101.385 111.864C100.982 112.161 100.498 112.31 99.9326 112.31ZM99.9326 111.35C100.431 111.35 100.821 111.106 101.101 110.62C101.384 110.133 101.525 109.43 101.525 108.509C101.525 107.898 101.461 107.381 101.331 106.96C101.204 106.535 101.021 106.214 100.781 105.996C100.544 105.775 100.261 105.665 99.9326 105.665C99.4364 105.665 99.0469 105.91 98.764 106.399C98.4812 106.888 98.3386 107.591 98.3362 108.509C98.3362 109.123 98.3997 109.642 98.5267 110.066C98.6562 110.488 98.8395 110.808 99.0768 111.026C99.3141 111.242 99.5994 111.35 99.9326 111.35Z" fill="white"></path> <path d="M93.831 124.926V118.79H94.2241V124.926H93.831ZM95.1541 120.631C95.1254 120.388 95.0087 120.199 94.8042 120.065C94.5996 119.931 94.3487 119.864 94.0515 119.864C93.8342 119.864 93.644 119.899 93.481 119.969C93.3196 120.039 93.1934 120.136 93.1023 120.259C93.0128 120.382 92.968 120.522 92.968 120.679C92.968 120.81 92.9992 120.922 93.0615 121.017C93.1254 121.109 93.2069 121.187 93.306 121.249C93.4051 121.31 93.509 121.36 93.6176 121.4C93.7263 121.438 93.8262 121.47 93.9173 121.494L94.4158 121.628C94.5437 121.661 94.6859 121.708 94.8425 121.767C95.0007 121.826 95.1517 121.907 95.2955 122.009C95.441 122.11 95.5608 122.239 95.6551 122.397C95.7494 122.555 95.7965 122.75 95.7965 122.98C95.7965 123.245 95.727 123.485 95.588 123.699C95.4506 123.913 95.2492 124.083 94.9839 124.209C94.7203 124.336 94.3999 124.399 94.0227 124.399C93.6712 124.399 93.3667 124.342 93.1095 124.229C92.8538 124.115 92.6524 123.957 92.5054 123.754C92.36 123.551 92.2777 123.315 92.2585 123.047H92.8722C92.8881 123.232 92.9505 123.386 93.0591 123.507C93.1694 123.627 93.3084 123.716 93.4762 123.776C93.6456 123.833 93.8278 123.862 94.0227 123.862C94.2496 123.862 94.4534 123.825 94.634 123.752C94.8145 123.676 94.9576 123.573 95.063 123.44C95.1685 123.306 95.2212 123.149 95.2212 122.97C95.2212 122.807 95.1757 122.675 95.0846 122.572C94.9935 122.47 94.8737 122.387 94.7251 122.323C94.5764 122.259 94.4158 122.203 94.2433 122.155L93.6392 121.983C93.2557 121.872 92.9521 121.715 92.7283 121.51C92.5046 121.306 92.3928 121.038 92.3928 120.707C92.3928 120.433 92.4671 120.193 92.6157 119.988C92.7659 119.782 92.9672 119.622 93.2197 119.509C93.4738 119.394 93.7575 119.336 94.0707 119.336C94.3871 119.336 94.6683 119.393 94.9144 119.506C95.1605 119.618 95.3555 119.772 95.4993 119.967C95.6447 120.162 95.7214 120.383 95.7294 120.631H95.1541ZM98.4135 119.403V124.312H97.819V120.027H97.7902L96.5917 120.822V120.218L97.819 119.403H98.4135ZM100.389 123.641L100.35 123.9C100.323 124.082 100.282 124.277 100.226 124.485C100.171 124.693 100.115 124.889 100.055 125.072C99.9963 125.256 99.9476 125.402 99.9092 125.511H99.4777C99.4985 125.409 99.5257 125.274 99.5592 125.106C99.5928 124.938 99.6264 124.75 99.6599 124.543C99.6951 124.336 99.7238 124.126 99.7462 123.91L99.775 123.641H100.389ZM102.862 124.38C102.581 124.38 102.328 124.324 102.102 124.212C101.877 124.1 101.697 123.947 101.561 123.752C101.425 123.557 101.351 123.335 101.338 123.085H101.913C101.935 123.307 102.036 123.491 102.215 123.637C102.396 123.78 102.611 123.852 102.862 123.852C103.064 123.852 103.243 123.805 103.399 123.711C103.557 123.617 103.681 123.487 103.771 123.323C103.862 123.156 103.907 122.969 103.907 122.759C103.907 122.545 103.86 122.354 103.766 122.186C103.673 122.017 103.545 121.884 103.382 121.786C103.219 121.689 103.033 121.639 102.824 121.637C102.674 121.636 102.52 121.659 102.361 121.707C102.203 121.753 102.073 121.813 101.971 121.887L101.415 121.82L101.712 119.403H104.262V119.931H102.21L102.038 121.379H102.067C102.167 121.299 102.293 121.232 102.445 121.18C102.597 121.127 102.755 121.1 102.92 121.1C103.22 121.1 103.488 121.172 103.723 121.316C103.959 121.458 104.145 121.653 104.279 121.901C104.415 122.149 104.483 122.432 104.483 122.75C104.483 123.063 104.412 123.343 104.272 123.589C104.133 123.833 103.941 124.026 103.696 124.169C103.452 124.309 103.174 124.38 102.862 124.38ZM106.969 124.38C106.688 124.38 106.434 124.324 106.209 124.212C105.984 124.1 105.803 123.947 105.667 123.752C105.532 123.557 105.457 123.335 105.445 123.085H106.02C106.042 123.307 106.143 123.491 106.322 123.637C106.502 123.78 106.718 123.852 106.969 123.852C107.17 123.852 107.349 123.805 107.506 123.711C107.664 123.617 107.788 123.487 107.877 123.323C107.969 123.156 108.014 122.969 108.014 122.759C108.014 122.545 107.967 122.354 107.873 122.186C107.78 122.017 107.652 121.884 107.489 121.786C107.326 121.689 107.14 121.639 106.931 121.637C106.78 121.636 106.626 121.659 106.468 121.707C106.31 121.753 106.18 121.813 106.077 121.887L105.521 121.82L105.818 119.403H108.369V119.931H106.317L106.144 121.379H106.173C106.274 121.299 106.4 121.232 106.552 121.18C106.704 121.127 106.862 121.1 107.027 121.1C107.327 121.1 107.595 121.172 107.83 121.316C108.066 121.458 108.251 121.653 108.386 121.901C108.521 122.149 108.589 122.432 108.589 122.75C108.589 123.063 108.519 123.343 108.378 123.589C108.239 123.833 108.048 124.026 107.803 124.169C107.559 124.309 107.281 124.38 106.969 124.38ZM109.542 124.312V123.881L111.162 122.107C111.352 121.9 111.509 121.719 111.632 121.566C111.755 121.411 111.846 121.265 111.905 121.129C111.966 120.992 111.996 120.848 111.996 120.698C111.996 120.525 111.955 120.376 111.872 120.25C111.79 120.123 111.678 120.026 111.536 119.957C111.394 119.888 111.234 119.854 111.057 119.854C110.868 119.854 110.703 119.893 110.563 119.972C110.424 120.048 110.316 120.156 110.239 120.295C110.164 120.434 110.126 120.597 110.126 120.784H109.561C109.561 120.496 109.627 120.244 109.76 120.027C109.892 119.809 110.073 119.64 110.301 119.518C110.532 119.397 110.79 119.336 111.076 119.336C111.363 119.336 111.618 119.397 111.84 119.518C112.062 119.64 112.237 119.804 112.363 120.01C112.489 120.216 112.552 120.445 112.552 120.698C112.552 120.878 112.52 121.055 112.454 121.228C112.39 121.399 112.278 121.589 112.118 121.8C111.96 122.01 111.74 122.265 111.459 122.567L110.357 123.747V123.785H112.639V124.312H109.542ZM114.05 124.351C113.932 124.351 113.831 124.309 113.746 124.224C113.661 124.139 113.619 124.038 113.619 123.919C113.619 123.801 113.661 123.7 113.746 123.615C113.831 123.53 113.932 123.488 114.05 123.488C114.169 123.488 114.27 123.53 114.355 123.615C114.44 123.7 114.482 123.801 114.482 123.919C114.482 123.998 114.462 124.07 114.422 124.135C114.384 124.201 114.332 124.253 114.266 124.293C114.202 124.332 114.13 124.351 114.05 124.351ZM116.627 119.403V124.312H116.032V120.027H116.003L114.805 120.822V120.218L116.032 119.403H116.627ZM119.668 124.38C119.467 124.376 119.266 124.338 119.064 124.265C118.863 124.191 118.679 124.067 118.513 123.893C118.347 123.717 118.213 123.48 118.113 123.181C118.012 122.881 117.962 122.504 117.962 122.05C117.962 121.615 118.002 121.23 118.084 120.894C118.165 120.557 118.284 120.274 118.439 120.043C118.594 119.812 118.781 119.636 119 119.516C119.22 119.396 119.469 119.336 119.745 119.336C120.02 119.336 120.264 119.391 120.479 119.502C120.694 119.61 120.87 119.762 121.006 119.957C121.142 120.152 121.23 120.377 121.27 120.631H120.685C120.63 120.41 120.525 120.227 120.368 120.082C120.212 119.936 120.004 119.864 119.745 119.864C119.365 119.864 119.065 120.029 118.846 120.36C118.629 120.691 118.519 121.155 118.518 121.752H118.556C118.646 121.617 118.752 121.501 118.875 121.405C119 121.307 119.137 121.232 119.287 121.18C119.438 121.127 119.597 121.1 119.764 121.1C120.046 121.1 120.303 121.171 120.536 121.311C120.769 121.45 120.956 121.643 121.097 121.889C121.238 122.134 121.308 122.414 121.308 122.73C121.308 123.034 121.24 123.312 121.104 123.565C120.968 123.816 120.777 124.015 120.531 124.164C120.287 124.311 119.999 124.383 119.668 124.38ZM119.668 123.852C119.87 123.852 120.05 123.802 120.21 123.701C120.372 123.601 120.499 123.466 120.591 123.296C120.686 123.127 120.733 122.938 120.733 122.73C120.733 122.528 120.687 122.343 120.596 122.177C120.507 122.009 120.383 121.876 120.225 121.776C120.068 121.677 119.889 121.628 119.688 121.628C119.536 121.628 119.394 121.658 119.263 121.719C119.132 121.778 119.017 121.86 118.918 121.963C118.821 122.067 118.744 122.186 118.688 122.321C118.632 122.453 118.604 122.593 118.604 122.74C118.604 122.935 118.65 123.117 118.741 123.287C118.833 123.456 118.96 123.593 119.119 123.696C119.281 123.8 119.464 123.852 119.668 123.852Z" fill="#9298A6"></path> <g clip-path="url(#clip0_274_2010)"> <path d="M201.849 112.188V104.824H206.465V105.78H202.96V108.024H206.224V108.977H202.96V111.231H206.508V112.188H201.849ZM207.586 105.78V104.824H213.285V105.78H210.987V112.188H209.88V105.78H207.586ZM214.544 112.188V104.824H215.655V108.024H219.326V104.824H220.441V112.188H219.326V108.977H215.655V112.188H214.544Z" fill="white"></path> </g> <g clip-path="url(#clip1_274_2010)"> <path d="M191.245 124.312V119.403H194.208V119.931H191.84V121.589H194.055V122.117H191.84V123.785H194.246V124.312H191.245ZM196.804 120.631V121.11H194.896V120.631H196.804ZM195.452 119.749H196.018V123.258C196.018 123.418 196.041 123.537 196.087 123.617C196.135 123.696 196.196 123.748 196.269 123.776C196.345 123.801 196.424 123.814 196.507 123.814C196.569 123.814 196.62 123.811 196.66 123.804C196.7 123.796 196.732 123.79 196.756 123.785L196.871 124.293C196.833 124.308 196.779 124.322 196.711 124.336C196.642 124.352 196.555 124.36 196.449 124.36C196.289 124.36 196.133 124.326 195.979 124.257C195.828 124.189 195.701 124.084 195.601 123.943C195.502 123.803 195.452 123.625 195.452 123.411V119.749ZM198.3 122.098V124.312H197.734V119.403H198.3V121.206H198.348C198.434 121.016 198.563 120.865 198.736 120.753C198.91 120.639 199.142 120.583 199.431 120.583C199.682 120.583 199.902 120.633 200.09 120.734C200.279 120.833 200.425 120.985 200.529 121.192C200.634 121.396 200.687 121.657 200.687 121.973V124.312H200.121V122.011C200.121 121.719 200.046 121.493 199.894 121.333C199.744 121.172 199.535 121.091 199.268 121.091C199.083 121.091 198.917 121.13 198.77 121.208C198.624 121.287 198.509 121.401 198.424 121.551C198.341 121.701 198.3 121.884 198.3 122.098ZM203.266 124.389C202.911 124.389 202.605 124.311 202.348 124.154C202.092 123.996 201.895 123.776 201.756 123.493C201.618 123.208 201.55 122.877 201.55 122.5C201.55 122.123 201.618 121.791 201.756 121.503C201.895 121.214 202.088 120.989 202.336 120.827C202.585 120.664 202.876 120.583 203.208 120.583C203.4 120.583 203.589 120.615 203.776 120.679C203.963 120.743 204.134 120.846 204.287 120.99C204.44 121.132 204.563 121.321 204.654 121.556C204.745 121.791 204.79 122.08 204.79 122.424V122.663H201.952V122.174H204.215C204.215 121.967 204.173 121.781 204.09 121.618C204.009 121.455 203.892 121.327 203.74 121.232C203.59 121.138 203.413 121.091 203.208 121.091C202.983 121.091 202.788 121.147 202.623 121.259C202.46 121.369 202.335 121.513 202.247 121.69C202.159 121.868 202.115 122.058 202.115 122.261V122.587C202.115 122.865 202.163 123.1 202.259 123.294C202.357 123.486 202.492 123.632 202.664 123.732C202.837 123.831 203.037 123.881 203.266 123.881C203.414 123.881 203.549 123.86 203.668 123.819C203.79 123.776 203.895 123.712 203.982 123.627C204.07 123.541 204.138 123.434 204.186 123.306L204.733 123.459C204.675 123.645 204.579 123.808 204.443 123.948C204.307 124.087 204.139 124.196 203.939 124.274C203.74 124.351 203.515 124.389 203.266 124.389ZM205.651 124.312V120.631H206.197V121.187H206.236C206.303 121.005 206.424 120.857 206.6 120.743C206.776 120.63 206.974 120.573 207.194 120.573C207.236 120.573 207.288 120.574 207.35 120.576C207.413 120.577 207.46 120.58 207.492 120.583V121.158C207.473 121.153 207.429 121.146 207.36 121.136C207.293 121.125 207.222 121.12 207.147 121.12C206.968 121.12 206.808 121.157 206.667 121.232C206.528 121.306 206.418 121.408 206.336 121.539C206.256 121.669 206.217 121.816 206.217 121.983V124.312H205.651ZM209.594 124.389C209.239 124.389 208.933 124.311 208.676 124.154C208.42 123.996 208.223 123.776 208.084 123.493C207.946 123.208 207.878 122.877 207.878 122.5C207.878 122.123 207.946 121.791 208.084 121.503C208.223 121.214 208.416 120.989 208.664 120.827C208.913 120.664 209.204 120.583 209.536 120.583C209.728 120.583 209.918 120.615 210.104 120.679C210.291 120.743 210.462 120.846 210.615 120.99C210.768 121.132 210.891 121.321 210.982 121.556C211.073 121.791 211.118 122.08 211.118 122.424V122.663H208.28V122.174H210.543C210.543 121.967 210.502 121.781 210.418 121.618C210.337 121.455 210.22 121.327 210.069 121.232C209.918 121.138 209.741 121.091 209.536 121.091C209.311 121.091 209.116 121.147 208.952 121.259C208.789 121.369 208.663 121.513 208.575 121.69C208.487 121.868 208.443 122.058 208.443 122.261V122.587C208.443 122.865 208.491 123.1 208.587 123.294C208.685 123.486 208.82 123.632 208.992 123.732C209.165 123.831 209.365 123.881 209.594 123.881C209.743 123.881 209.877 123.86 209.997 123.819C210.118 123.776 210.223 123.712 210.311 123.627C210.399 123.541 210.466 123.434 210.514 123.306L211.061 123.459C211.003 123.645 210.907 123.808 210.771 123.948C210.635 124.087 210.467 124.196 210.267 124.274C210.068 124.351 209.843 124.389 209.594 124.389ZM214.299 122.807V120.631H214.865V124.312H214.299V123.689H214.261C214.175 123.876 214.04 124.035 213.858 124.166C213.676 124.296 213.446 124.36 213.168 124.36C212.938 124.36 212.733 124.31 212.554 124.209C212.375 124.107 212.235 123.954 212.132 123.749C212.03 123.543 211.979 123.283 211.979 122.97V120.631H212.545V122.932C212.545 123.2 212.62 123.414 212.77 123.574C212.922 123.734 213.115 123.814 213.35 123.814C213.491 123.814 213.634 123.778 213.779 123.706C213.926 123.634 214.049 123.524 214.148 123.375C214.249 123.227 214.299 123.037 214.299 122.807ZM215.901 124.312V120.631H216.448V121.206H216.496C216.572 121.009 216.696 120.857 216.867 120.748C217.038 120.638 217.243 120.583 217.483 120.583C217.726 120.583 217.928 120.638 218.09 120.748C218.253 120.857 218.38 121.009 218.471 121.206H218.509C218.603 121.016 218.745 120.865 218.933 120.753C219.122 120.639 219.348 120.583 219.612 120.583C219.941 120.583 220.21 120.686 220.419 120.892C220.629 121.097 220.733 121.415 220.733 121.848V124.312H220.168V121.848C220.168 121.577 220.093 121.383 219.945 121.266C219.796 121.149 219.621 121.091 219.42 121.091C219.161 121.091 218.96 121.169 218.818 121.326C218.676 121.481 218.605 121.677 218.605 121.915V124.312H218.03V121.791C218.03 121.581 217.962 121.413 217.826 121.285C217.69 121.156 217.515 121.091 217.301 121.091C217.154 121.091 217.016 121.13 216.889 121.208C216.762 121.287 216.66 121.395 216.582 121.534C216.505 121.672 216.467 121.831 216.467 122.011V124.312H215.901Z" fill="#9298A6"></path> </g> <g clip-path="url(#clip2_274_2010)"> <path d="M239.25 124.5C245.463 124.5 250.5 119.463 250.5 113.25C250.5 107.037 245.463 102 239.25 102C233.037 102 228 107.037 228 113.25C228 119.463 233.037 124.5 239.25 124.5Z" fill="#627EEA"></path> <path d="M239.25 104.812V111.049L244.521 113.405L239.25 104.812Z" fill="white" fill-opacity="0.602"></path> <path d="M239.6 104.812L234.328 113.405L239.6 111.049V104.812Z" fill="white"></path> <path d="M239.25 117.716V121.954L244.525 114.656L239.25 117.716Z" fill="white" fill-opacity="0.602"></path> <path d="M239.6 121.954V117.716L234.328 114.656L239.6 121.954Z" fill="white"></path> <path d="M239.25 116.555L244.521 113.495L239.25 111.141V116.555Z" fill="white" fill-opacity="0.2"></path> <path d="M234.328 113.495L239.6 116.555V111.141L234.328 113.495Z" fill="white" fill-opacity="0.602"></path> </g> <rect x="83.375" y="98" width="173.375" height="30.5" rx="6.25" stroke="#2D2844"></rect> <rect x="83.375" y="62" width="173.375" height="30.5" rx="6.25" fill="#2D2844" fill-opacity="0.5"></rect> <path d="M95.377 68.8239V76.1875H94.2624V69.9385H94.2193L92.4575 71.089V70.0248L94.2948 68.8239H95.377ZM97.369 76.1875V75.3821L99.8607 72.8005C100.127 72.5201 100.346 72.2744 100.519 72.0634C100.694 71.8501 100.824 71.6475 100.911 71.4558C100.997 71.264 101.04 71.0603 101.04 70.8445C101.04 70.6001 100.982 70.3891 100.867 70.2117C100.752 70.032 100.595 69.8941 100.396 69.7983C100.197 69.7 99.9733 69.6508 99.724 69.6508C99.4604 69.6508 99.2302 69.7048 99.0337 69.8126C98.8371 69.9205 98.6861 70.0727 98.5807 70.2693C98.4752 70.4658 98.4225 70.6959 98.4225 70.9596H97.3618C97.3618 70.5114 97.4648 70.1195 97.671 69.7839C97.8771 69.4483 98.16 69.1882 98.5195 69.0036C98.8791 68.8167 99.2878 68.7232 99.7456 68.7232C100.208 68.7232 100.616 68.8155 100.968 69C101.323 69.1822 101.6 69.4315 101.799 69.7479C101.998 70.0619 102.097 70.4167 102.097 70.8122C102.097 71.0854 102.046 71.3527 101.942 71.614C101.842 71.8753 101.666 72.1665 101.414 72.4877C101.162 72.8065 100.812 73.1936 100.364 73.6491L98.9007 75.1808V75.2347H102.216V76.1875H97.369ZM104.301 76.2558C104.105 76.2558 103.936 76.1863 103.794 76.0473C103.653 75.9059 103.582 75.7357 103.582 75.5367C103.582 75.3402 103.653 75.1724 103.794 75.0333C103.936 74.8919 104.105 74.8212 104.301 74.8212C104.498 74.8212 104.667 74.8919 104.808 75.0333C104.95 75.1724 105.02 75.3402 105.02 75.5367C105.02 75.6685 104.987 75.7896 104.92 75.8999C104.855 76.0077 104.769 76.094 104.661 76.1587C104.553 76.2235 104.433 76.2558 104.301 76.2558ZM106.506 76.1875L109.72 69.8306V69.7767H106.003V68.8239H110.871V69.809L107.667 76.1875H106.506ZM111.374 74.7493V73.8504L114.556 68.8239H115.264V70.147H114.814L112.538 73.7497V73.8073H116.9V74.7493H111.374ZM114.865 76.1875V74.476L114.872 74.0661V68.8239H115.925V76.1875H114.865ZM120.583 76.2882C120.133 76.2882 119.728 76.2019 119.368 76.0293C119.011 75.8543 118.726 75.6146 118.512 75.3102C118.299 75.0058 118.185 74.6582 118.171 74.2675H119.25C119.276 74.5839 119.416 74.844 119.67 75.0477C119.924 75.2515 120.229 75.3533 120.583 75.3533C120.866 75.3533 121.117 75.2886 121.335 75.1592C121.555 75.0273 121.728 74.8464 121.853 74.6163C121.98 74.3861 122.043 74.1237 122.043 73.8288C122.043 73.5292 121.979 73.2619 121.849 73.027C121.72 72.7921 121.541 72.6076 121.313 72.4733C121.088 72.3391 120.829 72.2708 120.537 72.2684C120.314 72.2684 120.09 72.3067 119.864 72.3834C119.639 72.4601 119.457 72.5608 119.318 72.6855L118.3 72.5344L118.714 68.8239H122.762V69.7767H119.638L119.404 71.8369H119.447C119.591 71.6979 119.782 71.5816 120.019 71.4881C120.259 71.3947 120.515 71.3479 120.788 71.3479C121.237 71.3479 121.636 71.4546 121.986 71.6679C122.338 71.8813 122.615 72.1725 122.816 72.5416C123.02 72.9084 123.121 73.3303 123.118 73.8073C123.121 74.2843 123.013 74.7097 122.795 75.0837C122.579 75.4576 122.279 75.7524 121.896 75.9682C121.515 76.1815 121.077 76.2882 120.583 76.2882ZM126.88 68.7232C127.209 68.7256 127.532 68.7855 127.851 68.903C128.17 69.0204 128.457 69.2122 128.714 69.4782C128.973 69.7443 129.179 70.1039 129.332 70.5569C129.488 71.0075 129.567 71.5684 129.57 72.2396C129.57 72.8844 129.505 73.4585 129.375 73.9619C129.246 74.4628 129.06 74.8859 128.818 75.2311C128.578 75.5763 128.287 75.8387 127.944 76.0185C127.602 76.1983 127.216 76.2882 126.787 76.2882C126.348 76.2882 125.958 76.2019 125.618 76.0293C125.278 75.8567 125.001 75.6182 124.788 75.3138C124.574 75.007 124.441 74.6546 124.388 74.2567H125.485C125.557 74.5731 125.703 74.8296 125.924 75.0261C126.147 75.2203 126.434 75.3174 126.787 75.3174C127.326 75.3174 127.747 75.0825 128.049 74.6127C128.351 74.1404 128.503 73.4813 128.505 72.6351H128.448C128.323 72.8413 128.167 73.0186 127.98 73.1673C127.796 73.3159 127.588 73.4309 127.358 73.5124C127.128 73.5939 126.883 73.6347 126.621 73.6347C126.197 73.6347 125.811 73.5304 125.464 73.3219C125.116 73.1133 124.839 72.8269 124.633 72.4625C124.427 72.0982 124.324 71.6823 124.324 71.2149C124.324 70.7499 124.429 70.328 124.64 69.9493C124.853 69.5705 125.151 69.2709 125.532 69.0504C125.915 68.8275 126.365 68.7184 126.88 68.7232ZM126.884 69.658C126.603 69.658 126.35 69.7275 126.125 69.8666C125.902 70.0032 125.726 70.189 125.597 70.4239C125.467 70.6564 125.402 70.9153 125.402 71.2005C125.402 71.4858 125.465 71.7446 125.589 71.9771C125.716 72.2073 125.889 72.3906 126.107 72.5273C126.328 72.6615 126.579 72.7286 126.862 72.7286C127.073 72.7286 127.27 72.6879 127.452 72.6064C127.634 72.5249 127.793 72.4122 127.93 72.2684C128.067 72.1222 128.173 71.9568 128.25 71.7722C128.327 71.5876 128.365 71.3935 128.365 71.1897C128.365 70.9189 128.3 70.6672 128.171 70.4347C128.044 70.2021 127.869 70.0152 127.646 69.8738C127.423 69.7299 127.169 69.658 126.884 69.658ZM130.714 74.7493V73.8504L133.896 68.8239H134.604V70.147H134.155L131.879 73.7497V73.8073H136.24V74.7493H130.714ZM134.205 76.1875V74.476L134.212 74.0661V68.8239H135.266V76.1875H134.205Z" fill="white"></path> <path d="M93.831 88.9261V82.7898H94.2241V88.9261H93.831ZM95.1541 84.6307C95.1254 84.3878 95.0087 84.1992 94.8042 84.065C94.5996 83.9308 94.3487 83.8636 94.0515 83.8636C93.8342 83.8636 93.644 83.8988 93.481 83.9691C93.3196 84.0394 93.1934 84.1361 93.1023 84.2591C93.0128 84.3822 92.968 84.522 92.968 84.6786C92.968 84.8097 92.9992 84.9223 93.0615 85.0166C93.1254 85.1093 93.2069 85.1868 93.306 85.2491C93.4051 85.3098 93.509 85.3602 93.6176 85.4001C93.7263 85.4385 93.8262 85.4696 93.9173 85.4936L94.4158 85.6278C94.5437 85.6614 94.6859 85.7077 94.8425 85.7669C95.0007 85.826 95.1517 85.9067 95.2955 86.009C95.441 86.1096 95.5608 86.2391 95.6551 86.3973C95.7494 86.5555 95.7965 86.7496 95.7965 86.9798C95.7965 87.245 95.727 87.4847 95.588 87.6989C95.4506 87.913 95.2492 88.0832 94.9839 88.2094C94.7203 88.3357 94.3999 88.3988 94.0227 88.3988C93.6712 88.3988 93.3667 88.3421 93.1095 88.2286C92.8538 88.1151 92.6524 87.9569 92.5054 87.754C92.36 87.551 92.2777 87.3153 92.2585 87.0469H92.8722C92.8881 87.2322 92.9505 87.3857 93.0591 87.5071C93.1694 87.627 93.3084 87.7164 93.4762 87.7756C93.6456 87.8331 93.8278 87.8619 94.0227 87.8619C94.2496 87.8619 94.4534 87.8251 94.634 87.7516C94.8145 87.6765 94.9576 87.5726 95.063 87.44C95.1685 87.3058 95.2212 87.1491 95.2212 86.9702C95.2212 86.8072 95.1757 86.6745 95.0846 86.5723C94.9935 86.47 94.8737 86.3869 94.7251 86.323C94.5764 86.2591 94.4158 86.2031 94.2433 86.1552L93.6392 85.9826C93.2557 85.8723 92.9521 85.7149 92.7283 85.5104C92.5046 85.3058 92.3928 85.0382 92.3928 84.7074C92.3928 84.4325 92.4671 84.1928 92.6157 83.9883C92.7659 83.7821 92.9672 83.6223 93.2197 83.5089C93.4738 83.3938 93.7575 83.3363 94.0707 83.3363C94.3871 83.3363 94.6683 83.393 94.9144 83.5065C95.1605 83.6183 95.3555 83.7718 95.4993 83.9667C95.6447 84.1617 95.7214 84.383 95.7294 84.6307H95.1541ZM98.4135 83.4034V88.3125H97.819V84.0266H97.7902L96.5917 84.8224V84.2184L97.819 83.4034H98.4135ZM99.9571 88.3509C99.8389 88.3509 99.7374 88.3085 99.6527 88.2238C99.568 88.1391 99.5257 88.0376 99.5257 87.9194C99.5257 87.8011 99.568 87.6997 99.6527 87.615C99.7374 87.5303 99.8389 87.4879 99.9571 87.4879C100.075 87.4879 100.177 87.5303 100.262 87.615C100.346 87.6997 100.389 87.8011 100.389 87.9194C100.389 87.9977 100.369 88.0696 100.329 88.1351C100.29 88.2006 100.238 88.2534 100.173 88.2933C100.109 88.3317 100.037 88.3509 99.9571 88.3509ZM102.824 88.3796C102.463 88.3796 102.155 88.2813 101.901 88.0848C101.647 87.8866 101.453 87.5998 101.319 87.2243C101.184 86.8471 101.117 86.3917 101.117 85.858C101.117 85.3274 101.184 84.8744 101.319 84.4988C101.454 84.1217 101.649 83.8341 101.904 83.6359C102.159 83.4362 102.466 83.3363 102.824 83.3363C103.182 83.3363 103.488 83.4362 103.742 83.6359C103.998 83.8341 104.193 84.1217 104.327 84.4988C104.463 84.8744 104.531 85.3274 104.531 85.858C104.531 86.3917 104.464 86.8471 104.329 87.2243C104.195 87.5998 104.001 87.8866 103.747 88.0848C103.493 88.2813 103.185 88.3796 102.824 88.3796ZM102.824 87.8523C103.182 87.8523 103.46 87.6797 103.658 87.3345C103.856 86.9893 103.955 86.4972 103.955 85.858C103.955 85.4329 103.91 85.0709 103.819 84.7721C103.729 84.4733 103.6 84.2456 103.43 84.089C103.263 83.9324 103.06 83.854 102.824 83.854C102.469 83.854 102.192 84.029 101.992 84.379C101.792 84.7274 101.693 85.2203 101.693 85.858C101.693 86.283 101.737 86.6442 101.827 86.9414C101.916 87.2386 102.045 87.4648 102.213 87.6198C102.382 87.7748 102.586 87.8523 102.824 87.8523ZM107.043 88.3796C106.682 88.3796 106.374 88.2813 106.12 88.0848C105.866 87.8866 105.672 87.5998 105.537 87.2243C105.403 86.8471 105.336 86.3917 105.336 85.858C105.336 85.3274 105.403 84.8744 105.537 84.4988C105.673 84.1217 105.868 83.8341 106.122 83.6359C106.378 83.4362 106.685 83.3363 107.043 83.3363C107.401 83.3363 107.707 83.4362 107.961 83.6359C108.216 83.8341 108.411 84.1217 108.546 84.4988C108.681 84.8744 108.749 85.3274 108.749 85.858C108.749 86.3917 108.682 86.8471 108.548 87.2243C108.414 87.5998 108.22 87.8866 107.966 88.0848C107.711 88.2813 107.404 88.3796 107.043 88.3796ZM107.043 87.8523C107.401 87.8523 107.679 87.6797 107.877 87.3345C108.075 86.9893 108.174 86.4972 108.174 85.858C108.174 85.4329 108.129 85.0709 108.037 84.7721C107.948 84.4733 107.819 84.2456 107.649 84.089C107.481 83.9324 107.279 83.854 107.043 83.854C106.688 83.854 106.411 84.029 106.211 84.379C106.011 84.7274 105.911 85.2203 105.911 85.858C105.911 86.283 105.956 86.6442 106.046 86.9414C106.135 87.2386 106.264 87.4648 106.431 87.6198C106.601 87.7748 106.805 87.8523 107.043 87.8523ZM111.77 85.858C111.77 85.2539 111.848 84.6986 112.005 84.192C112.163 83.6839 112.388 83.2164 112.681 82.7898H113.179C113.064 82.948 112.956 83.1429 112.855 83.3746C112.756 83.6048 112.669 83.858 112.594 84.1345C112.519 84.4094 112.46 84.6938 112.417 84.9878C112.375 85.2819 112.355 85.5719 112.355 85.858C112.355 86.2383 112.391 86.6242 112.465 87.0157C112.538 87.4072 112.637 87.7708 112.762 88.1064C112.887 88.4419 113.026 88.7152 113.179 88.9261H112.681C112.388 88.4995 112.163 88.0328 112.005 87.5263C111.848 87.0181 111.77 86.462 111.77 85.858ZM115.605 88.3796C115.244 88.3796 114.937 88.2813 114.683 88.0848C114.429 87.8866 114.234 87.5998 114.1 87.2243C113.966 86.8471 113.899 86.3917 113.899 85.858C113.899 85.3274 113.966 84.8744 114.1 84.4988C114.236 84.1217 114.431 83.8341 114.685 83.6359C114.941 83.4362 115.248 83.3363 115.605 83.3363C115.963 83.3363 116.269 83.4362 116.524 83.6359C116.779 83.8341 116.974 84.1217 117.108 84.4988C117.244 84.8744 117.312 85.3274 117.312 85.858C117.312 86.3917 117.245 86.8471 117.111 87.2243C116.977 87.5998 116.782 87.8866 116.528 88.0848C116.274 88.2813 115.967 88.3796 115.605 88.3796ZM115.605 87.8523C115.963 87.8523 116.241 87.6797 116.44 87.3345C116.638 86.9893 116.737 86.4972 116.737 85.858C116.737 85.4329 116.691 85.0709 116.6 84.7721C116.511 84.4733 116.381 84.2456 116.212 84.089C116.044 83.9324 115.842 83.854 115.605 83.854C115.251 83.854 114.973 84.029 114.774 84.379C114.574 84.7274 114.474 85.2203 114.474 85.858C114.474 86.283 114.519 86.6442 114.608 86.9414C114.698 87.2386 114.826 87.4648 114.994 87.6198C115.164 87.7748 115.367 87.8523 115.605 87.8523ZM118.473 88.3509C118.355 88.3509 118.254 88.3085 118.169 88.2238C118.084 88.1391 118.042 88.0376 118.042 87.9194C118.042 87.8011 118.084 87.6997 118.169 87.615C118.254 87.5303 118.355 87.4879 118.473 87.4879C118.592 87.4879 118.693 87.5303 118.778 87.615C118.863 87.6997 118.905 87.8011 118.905 87.9194C118.905 87.9977 118.885 88.0696 118.845 88.1351C118.807 88.2006 118.755 88.2534 118.689 88.2933C118.625 88.3317 118.553 88.3509 118.473 88.3509ZM121.34 88.3796C120.979 88.3796 120.672 88.2813 120.417 88.0848C120.163 87.8866 119.969 87.5998 119.835 87.2243C119.701 86.8471 119.634 86.3917 119.634 85.858C119.634 85.3274 119.701 84.8744 119.835 84.4988C119.971 84.1217 120.166 83.8341 120.42 83.6359C120.676 83.4362 120.982 83.3363 121.34 83.3363C121.698 83.3363 122.004 83.4362 122.258 83.6359C122.514 83.8341 122.709 84.1217 122.843 84.4988C122.979 84.8744 123.047 85.3274 123.047 85.858C123.047 86.3917 122.98 86.8471 122.846 87.2243C122.711 87.5998 122.517 87.8866 122.263 88.0848C122.009 88.2813 121.701 88.3796 121.34 88.3796ZM121.34 87.8523C121.698 87.8523 121.976 87.6797 122.174 87.3345C122.373 86.9893 122.472 86.4972 122.472 85.858C122.472 85.4329 122.426 85.0709 122.335 84.7721C122.246 84.4733 122.116 84.2456 121.947 84.089C121.779 83.9324 121.577 83.854 121.34 83.854C120.986 83.854 120.708 84.029 120.509 84.379C120.309 84.7274 120.209 85.2203 120.209 85.858C120.209 86.283 120.254 86.6442 120.343 86.9414C120.433 87.2386 120.561 87.4648 120.729 87.6198C120.898 87.7748 121.102 87.8523 121.34 87.8523ZM125.559 88.3796C125.198 88.3796 124.89 88.2813 124.636 88.0848C124.382 87.8866 124.188 87.5998 124.054 87.2243C123.92 86.8471 123.852 86.3917 123.852 85.858C123.852 85.3274 123.92 84.8744 124.054 84.4988C124.19 84.1217 124.385 83.8341 124.639 83.6359C124.894 83.4362 125.201 83.3363 125.559 83.3363C125.917 83.3363 126.223 83.4362 126.477 83.6359C126.733 83.8341 126.928 84.1217 127.062 84.4988C127.198 84.8744 127.266 85.3274 127.266 85.858C127.266 86.3917 127.199 86.8471 127.064 87.2243C126.93 87.5998 126.736 87.8866 126.482 88.0848C126.228 88.2813 125.92 88.3796 125.559 88.3796ZM125.559 87.8523C125.917 87.8523 126.195 87.6797 126.393 87.3345C126.591 86.9893 126.69 86.4972 126.69 85.858C126.69 85.4329 126.645 85.0709 126.554 84.7721C126.464 84.4733 126.335 84.2456 126.166 84.089C125.998 83.9324 125.796 83.854 125.559 83.854C125.204 83.854 124.927 84.029 124.727 84.379C124.528 84.7274 124.428 85.2203 124.428 85.858C124.428 86.283 124.472 86.6442 124.562 86.9414C124.651 87.2386 124.78 87.4648 124.948 87.6198C125.117 87.7748 125.321 87.8523 125.559 87.8523ZM130.679 87.392V87.1332C130.679 86.9542 130.716 86.7904 130.789 86.6418C130.864 86.4916 130.973 86.3717 131.115 86.2822C131.259 86.1911 131.433 86.1456 131.638 86.1456C131.846 86.1456 132.02 86.1911 132.16 86.2822C132.301 86.3717 132.407 86.4916 132.479 86.6418C132.551 86.7904 132.587 86.9542 132.587 87.1332V87.392C132.587 87.571 132.55 87.7356 132.477 87.8858C132.405 88.0344 132.298 88.1543 132.156 88.2454C132.015 88.3349 131.842 88.3796 131.638 88.3796C131.43 88.3796 131.255 88.3349 131.113 88.2454C130.971 88.1543 130.863 88.0344 130.789 87.8858C130.716 87.7356 130.679 87.571 130.679 87.392ZM131.168 87.1332V87.392C131.168 87.5407 131.203 87.6741 131.274 87.7923C131.344 87.909 131.465 87.9673 131.638 87.9673C131.806 87.9673 131.924 87.909 131.993 87.7923C132.063 87.6741 132.098 87.5407 132.098 87.392V87.1332C132.098 86.9846 132.065 86.8519 131.997 86.7353C131.93 86.617 131.811 86.5579 131.638 86.5579C131.47 86.5579 131.349 86.617 131.276 86.7353C131.204 86.8519 131.168 86.9846 131.168 87.1332ZM128.234 84.5827V84.3239C128.234 84.1449 128.271 83.9811 128.344 83.8325C128.42 83.6823 128.528 83.5624 128.67 83.4729C128.814 83.3818 128.988 83.3363 129.193 83.3363C129.401 83.3363 129.575 83.3818 129.716 83.4729C129.856 83.5624 129.962 83.6823 130.034 83.8325C130.106 83.9811 130.142 84.1449 130.142 84.3239V84.5827C130.142 84.7617 130.105 84.9263 130.032 85.0765C129.96 85.2251 129.853 85.345 129.711 85.4361C129.57 85.5256 129.398 85.5703 129.193 85.5703C128.985 85.5703 128.81 85.5256 128.668 85.4361C128.526 85.345 128.418 85.2251 128.344 85.0765C128.271 84.9263 128.234 84.7617 128.234 84.5827ZM128.723 84.3239V84.5827C128.723 84.7314 128.758 84.8648 128.829 84.983C128.899 85.0997 129.02 85.158 129.193 85.158C129.361 85.158 129.479 85.0997 129.548 84.983C129.618 84.8648 129.653 84.7314 129.653 84.5827V84.3239C129.653 84.1752 129.62 84.0426 129.553 83.926C129.485 83.8077 129.366 83.7486 129.193 83.7486C129.025 83.7486 128.905 83.8077 128.831 83.926C128.759 84.0426 128.723 84.1752 128.723 84.3239ZM128.416 88.3125L131.791 83.4034H132.338L128.963 88.3125H128.416ZM134.879 85.858C134.879 86.462 134.8 87.0181 134.641 87.5263C134.485 88.0328 134.26 88.4995 133.968 88.9261H133.469C133.584 88.7679 133.691 88.573 133.79 88.3413C133.891 88.1112 133.979 87.8587 134.054 87.5838C134.129 87.3074 134.188 87.0221 134.229 86.7281C134.272 86.4324 134.294 86.1424 134.294 85.858C134.294 85.4776 134.257 85.0917 134.184 84.7002C134.11 84.3087 134.011 83.9451 133.886 83.6096C133.762 83.274 133.623 83.0007 133.469 82.7898H133.968C134.26 83.2164 134.485 83.6839 134.641 84.192C134.8 84.6986 134.879 85.2539 134.879 85.858Z" fill="#9298A6"></path> <g clip-path="url(#clip3_274_2010)"> <path d="M199.227 68.8239H200.342V73.667C200.342 74.1824 200.221 74.639 199.979 75.0369C199.737 75.4324 199.396 75.7441 198.958 75.9718C198.519 76.1971 198.005 76.3097 197.415 76.3097C196.828 76.3097 196.315 76.1971 195.876 75.9718C195.438 75.7441 195.097 75.4324 194.855 75.0369C194.613 74.639 194.492 74.1824 194.492 73.667V68.8239H195.603V73.5771C195.603 73.9103 195.676 74.2064 195.822 74.4652C195.971 74.7241 196.181 74.9279 196.452 75.0765C196.723 75.2227 197.044 75.2958 197.415 75.2958C197.789 75.2958 198.112 75.2227 198.382 75.0765C198.656 74.9279 198.864 74.7241 199.008 74.4652C199.154 74.2064 199.227 73.9103 199.227 73.5771V68.8239ZM205.974 70.7583C205.935 70.4179 205.777 70.1542 205.499 69.9672C205.221 69.7779 204.871 69.6832 204.449 69.6832C204.147 69.6832 203.886 69.7311 203.665 69.827C203.445 69.9205 203.273 70.0499 203.151 70.2153C203.031 70.3783 202.971 70.5641 202.971 70.7726C202.971 70.9476 203.012 71.0986 203.093 71.2257C203.177 71.3527 203.286 71.4594 203.421 71.5457C203.557 71.6296 203.704 71.7003 203.859 71.7578C204.015 71.8129 204.165 71.8585 204.309 71.8944L205.028 72.0814C205.263 72.1389 205.504 72.2168 205.751 72.3151C205.997 72.4134 206.226 72.5428 206.437 72.7034C206.648 72.864 206.818 73.063 206.948 73.3003C207.08 73.5376 207.146 73.8216 207.146 74.1524C207.146 74.5695 207.038 74.9399 206.822 75.2634C206.609 75.587 206.298 75.8423 205.891 76.0293C205.486 76.2163 204.996 76.3097 204.42 76.3097C203.869 76.3097 203.392 76.2223 202.989 76.0473C202.587 75.8723 202.271 75.6242 202.044 75.303C201.816 74.9794 201.69 74.5959 201.666 74.1524H202.781C202.802 74.4185 202.889 74.6402 203.04 74.8176C203.193 74.9926 203.388 75.1232 203.626 75.2095C203.865 75.2934 204.128 75.3354 204.413 75.3354C204.727 75.3354 205.006 75.2862 205.251 75.1879C205.498 75.0873 205.692 74.9482 205.833 74.7709C205.975 74.5911 206.045 74.3813 206.045 74.1416C206.045 73.9235 205.983 73.7449 205.858 73.6059C205.736 73.4669 205.57 73.3518 205.359 73.2607C205.15 73.1697 204.914 73.0894 204.65 73.0198L203.78 72.7825C203.191 72.6219 202.723 72.3858 202.378 72.0742C202.035 71.7626 201.864 71.3503 201.864 70.8374C201.864 70.4131 201.979 70.0427 202.209 69.7263C202.439 69.4099 202.751 69.1642 203.144 68.9893C203.537 68.8119 203.98 68.7232 204.474 68.7232C204.973 68.7232 205.413 68.8107 205.794 68.9857C206.177 69.1606 206.479 69.4015 206.7 69.7084C206.92 70.0128 207.035 70.3627 207.045 70.7583H205.974ZM210.857 76.1875H208.473V68.8239H210.933C211.654 68.8239 212.274 68.9713 212.792 69.2661C213.309 69.5585 213.706 69.9792 213.982 70.5281C214.26 71.0747 214.399 71.7302 214.399 72.4949C214.399 73.2619 214.259 73.9211 213.978 74.4724C213.7 75.0237 213.297 75.448 212.77 75.7453C212.243 76.0401 211.605 76.1875 210.857 76.1875ZM209.584 75.2167H210.796C211.357 75.2167 211.823 75.1112 212.195 74.9003C212.566 74.687 212.844 74.379 213.029 73.9763C213.213 73.5712 213.306 73.0774 213.306 72.4949C213.306 71.9172 213.213 71.427 213.029 71.0243C212.847 70.6216 212.575 70.316 212.213 70.1075C211.851 69.8989 211.401 69.7947 210.864 69.7947H209.584V75.2167ZM215.101 69.7803V68.8239H220.8V69.7803H218.502V76.1875H217.395V69.7803H215.101Z" fill="white"></path> </g> <g clip-path="url(#clip4_274_2010)"> <path d="M200.891 83.9308V83.4034H204.573V83.9308H203.029V88.3125H202.435V83.9308H200.891ZM206.423 88.3892C206.068 88.3892 205.762 88.3109 205.505 88.1543C205.25 87.9961 205.052 87.7756 204.913 87.4927C204.776 87.2083 204.707 86.8775 204.707 86.5004C204.707 86.1232 204.776 85.7908 204.913 85.5032C205.052 85.214 205.246 84.9886 205.493 84.8272C205.742 84.6642 206.033 84.5827 206.366 84.5827C206.557 84.5827 206.747 84.6147 206.934 84.6786C207.121 84.7425 207.291 84.8464 207.444 84.9902C207.598 85.1325 207.72 85.321 207.811 85.5559C207.902 85.7908 207.948 86.0801 207.948 86.4237V86.6634H205.11V86.1744H207.372C207.372 85.9666 207.331 85.7812 207.248 85.6183C207.166 85.4553 207.05 85.3266 206.898 85.2323C206.748 85.1381 206.57 85.0909 206.366 85.0909C206.14 85.0909 205.945 85.1468 205.781 85.2587C205.618 85.369 205.492 85.5128 205.405 85.6902C205.317 85.8675 205.273 86.0577 205.273 86.2607V86.5866C205.273 86.8647 205.321 87.1004 205.417 87.2938C205.514 87.4855 205.649 87.6317 205.822 87.7324C205.994 87.8315 206.195 87.881 206.423 87.881C206.572 87.881 206.706 87.8603 206.826 87.8187C206.947 87.7756 207.052 87.7116 207.14 87.627C207.228 87.5407 207.296 87.4336 207.344 87.3058L207.89 87.4592C207.833 87.6445 207.736 87.8075 207.6 87.9482C207.464 88.0872 207.297 88.1958 207.097 88.2741C206.897 88.3509 206.673 88.3892 206.423 88.3892ZM210.409 84.6307V85.1101H208.501V84.6307H210.409ZM209.058 83.7486H209.623V87.2578C209.623 87.4176 209.646 87.5375 209.693 87.6174C209.741 87.6957 209.801 87.7484 209.875 87.7756C209.95 87.8011 210.029 87.8139 210.112 87.8139C210.175 87.8139 210.226 87.8107 210.266 87.8043C210.306 87.7963 210.338 87.79 210.362 87.7852L210.477 88.2933C210.438 88.3077 210.385 88.3221 210.316 88.3365C210.247 88.3525 210.16 88.3604 210.055 88.3604C209.895 88.3604 209.738 88.3261 209.585 88.2574C209.433 88.1887 209.307 88.084 209.206 87.9434C209.107 87.8027 209.058 87.6254 209.058 87.4112V83.7486ZM211.905 86.0977V88.3125H211.34V83.4034H211.905V85.206H211.953C212.039 85.0158 212.169 84.8648 212.341 84.7529C212.516 84.6395 212.747 84.5827 213.037 84.5827C213.288 84.5827 213.507 84.6331 213.696 84.7338C213.884 84.8328 214.031 84.9854 214.134 85.1916C214.24 85.3961 214.293 85.6566 214.293 85.973V88.3125H213.727V86.0114C213.727 85.7189 213.651 85.4928 213.499 85.333C213.349 85.1716 213.14 85.0909 212.874 85.0909C212.688 85.0909 212.522 85.1301 212.375 85.2084C212.23 85.2867 212.115 85.4009 212.03 85.5511C211.947 85.7013 211.905 85.8835 211.905 86.0977ZM216.871 88.3892C216.516 88.3892 216.21 88.3109 215.953 88.1543C215.698 87.9961 215.5 87.7756 215.361 87.4927C215.224 87.2083 215.155 86.8775 215.155 86.5004C215.155 86.1232 215.224 85.7908 215.361 85.5032C215.5 85.214 215.694 84.9886 215.941 84.8272C216.19 84.6642 216.481 84.5827 216.814 84.5827C217.005 84.5827 217.195 84.6147 217.382 84.6786C217.569 84.7425 217.739 84.8464 217.892 84.9902C218.046 85.1325 218.168 85.321 218.259 85.5559C218.35 85.7908 218.396 86.0801 218.396 86.4237V86.6634H215.558V86.1744H217.82C217.82 85.9666 217.779 85.7812 217.696 85.6183C217.614 85.4553 217.498 85.3266 217.346 85.2323C217.196 85.1381 217.018 85.0909 216.814 85.0909C216.588 85.0909 216.393 85.1468 216.229 85.2587C216.066 85.369 215.94 85.5128 215.853 85.6902C215.765 85.8675 215.721 86.0577 215.721 86.2607V86.5866C215.721 86.8647 215.769 87.1004 215.865 87.2938C215.962 87.4855 216.097 87.6317 216.27 87.7324C216.442 87.8315 216.643 87.881 216.871 87.881C217.02 87.881 217.154 87.8603 217.274 87.8187C217.395 87.7756 217.5 87.7116 217.588 87.627C217.676 87.5407 217.744 87.4336 217.792 87.3058L218.338 87.4592C218.281 87.6445 218.184 87.8075 218.048 87.9482C217.912 88.0872 217.745 88.1958 217.545 88.2741C217.345 88.3509 217.121 88.3892 216.871 88.3892ZM219.256 88.3125V84.6307H219.803V85.1868H219.841C219.908 85.0046 220.03 84.8568 220.205 84.7433C220.381 84.6299 220.579 84.5732 220.8 84.5732C220.842 84.5732 220.893 84.574 220.956 84.5756C221.018 84.5771 221.065 84.5795 221.097 84.5827V85.158C221.078 85.1532 221.034 85.146 220.965 85.1365C220.898 85.1253 220.827 85.1197 220.752 85.1197C220.573 85.1197 220.413 85.1572 220.273 85.2323C220.134 85.3058 220.023 85.4081 219.942 85.5392C219.862 85.6686 219.822 85.8164 219.822 85.9826V88.3125H219.256Z" fill="#9298A6"></path> </g> <g clip-path="url(#clip5_274_2010)"> <path d="M239.25 88.5C245.463 88.5 250.5 83.4632 250.5 77.25C250.5 71.0368 245.463 66 239.25 66C233.037 66 228 71.0368 228 77.25C228 83.4632 233.037 88.5 239.25 88.5Z" fill="#26A17B"></path> <path fill-rule="evenodd" clip-rule="evenodd" d="M240.39 78.3497V78.3483C240.313 78.3539 239.914 78.3778 239.025 78.3778C238.315 78.3778 237.815 78.3567 237.639 78.3483V78.3504C234.905 78.2302 232.865 77.7541 232.865 77.1846C232.865 76.6158 234.905 76.1398 237.639 76.0174V77.8765C237.818 77.8891 238.33 77.9194 239.037 77.9194C239.886 77.9194 240.311 77.8842 240.39 77.8772V76.0188C243.119 76.1405 245.154 76.6165 245.154 77.1846C245.154 77.7541 243.119 78.2287 240.39 78.3497ZM240.39 75.8255V74.1619H244.197V71.625H233.832V74.1619H237.639V75.8248C234.545 75.9668 232.219 76.5799 232.219 77.314C232.219 78.048 234.545 78.6605 237.639 78.8032V84.1343H240.39V78.8018C243.479 78.6598 245.8 78.0473 245.8 77.314C245.8 76.5806 243.479 75.9682 240.39 75.8255Z" fill="white"></path> </g> <rect x="83.375" y="62" width="173.375" height="30.5" rx="6.25" stroke="#2D2844"></rect> <g clip-path="url(#clip6_274_2010)"> <path d="M179.75 95.25C179.75 102.45 177.95 104.25 170.75 104.25C163.55 104.25 161.75 102.45 161.75 95.25C161.75 88.05 163.55 86.25 170.75 86.25C177.95 86.25 179.75 88.05 179.75 95.25Z" fill="#3C355B"></path> <path d="M170.75 91.3125V99.1875M170.75 99.1875L174.688 95.25M170.75 99.1875L166.812 95.25" stroke="white" stroke-width="0.84375" stroke-linecap="round" stroke-linejoin="round"></path> </g> <defs> <linearGradient id="paint0_linear_274_2010" x1="297.5" y1="16.5" x2="314.737" y2="91.9186" gradientUnits="userSpaceOnUse"> <stop stop-color="#393253"></stop> <stop offset="1" stop-color="#120D27" stop-opacity="0"></stop> </linearGradient> <linearGradient id="paint1_linear_274_2010" x1="79.16" y1="14.2028" x2="118.658" y2="75.0238" gradientUnits="userSpaceOnUse"> <stop stop-color="#393253"></stop> <stop offset="1" stop-color="#120D27" stop-opacity="0"></stop> </linearGradient> <linearGradient id="paint2_linear_274_2010" x1="172" y1="-14" x2="204.113" y2="101.221" gradientUnits="userSpaceOnUse"> <stop stop-color="#393253"></stop> <stop offset="1" stop-color="#120D27"></stop> </linearGradient> <clipPath id="clip0_274_2010"> <rect width="64.6875" height="16" fill="white" transform="translate(156.562 100.188)"></rect> </clipPath> <clipPath id="clip1_274_2010"> <rect width="64.6875" height="9" fill="white" transform="translate(156.562 117.312)"></rect> </clipPath> <clipPath id="clip2_274_2010"> <rect width="22.5" height="22.5" fill="white" transform="translate(228 102)"></rect> </clipPath> <clipPath id="clip3_274_2010"> <rect width="64.6875" height="16" fill="white" transform="translate(156.562 64.1875)"></rect> </clipPath> <clipPath id="clip4_274_2010"> <rect width="64.6875" height="9" fill="white" transform="translate(156.562 81.3125)"></rect> </clipPath> <clipPath id="clip5_274_2010"> <rect width="22.5" height="22.5" fill="white" transform="translate(228 66)"></rect> </clipPath> <clipPath id="clip6_274_2010"> <rect width="18" height="18" fill="white" transform="translate(161.75 86.25)"></rect> </clipPath> </defs> </svg> 