<?xml version="1.0" encoding="UTF-8"?> <svg xmlns="http://www.w3.org/2000/svg" width="96" height="96" viewBox="0 0 96 96" fill="none"> <rect width="96" height="96" rx="24" fill="#0D091E"></rect> <g clip-path="url(#clip0_273_1989)"> <path d="M72.689 48.0244H66.6332C64.8245 48.0244 63.359 49.49 63.359 51.2986V60.0883C63.359 61.897 61.8934 63.3625 60.0847 63.3625H35.9925C34.1838 63.3625 32.7183 64.8281 32.7183 66.6368V72.6926C32.7183 74.5013 34.1838 75.9668 35.9925 75.9668H61.4792C63.2879 75.9668 64.7326 74.5013 64.7326 72.6926V67.834C64.7326 66.0253 66.1982 64.7423 68.0068 64.7423H72.6878C74.4965 64.7423 75.962 63.2768 75.962 61.4681V51.2606C75.962 49.452 74.4965 48.0244 72.6878 48.0244H72.689Z" fill="#12FF80"></path> <path d="M32.7171 35.9937C32.7171 34.1851 34.1826 32.7195 35.9913 32.7195H60.0689C61.8775 32.7195 63.3431 31.254 63.3431 29.4453V23.3895C63.3431 21.5808 61.8775 20.1152 60.0689 20.1152H34.5956C32.7869 20.1152 31.3214 21.5808 31.3214 23.3895V28.0557C31.3214 29.8644 29.8558 31.3299 28.0471 31.3299H23.387C21.5784 31.3299 20.1128 32.7955 20.1128 34.6042V44.8226C20.1128 46.6313 21.5845 48.0233 23.3931 48.0233H29.449C31.2577 48.0233 32.7232 46.5578 32.7232 44.7491L32.7171 35.995V35.9937Z" fill="#12FF80"></path> <path d="M45.1877 41.6587H51.0046C52.9002 41.6587 54.4381 43.1978 54.4381 45.0922V50.9091C54.4381 52.8048 52.899 54.3426 51.0046 54.3426H45.1877C43.292 54.3426 41.7542 52.8035 41.7542 50.9091V45.0922C41.7542 43.1965 43.2932 41.6587 45.1877 41.6587Z" fill="#12FF80"></path> </g> <defs> <clipPath id="clip0_273_1989"> <rect width="56" height="56" fill="white" transform="translate(20 20)"></rect> </clipPath> </defs> </svg> 