<?xml version="1.0" encoding="UTF-8"?> <svg xmlns="http://www.w3.org/2000/svg" width="96" height="96" viewBox="0 0 96 96" fill="none"> <rect width="96" height="96" rx="24" fill="#0D091E"></rect> <mask id="mask0_273_2030" style="mask-type:alpha" maskUnits="userSpaceOnUse" x="20" y="22" width="56" height="56"> <path d="M32.75 24.0609C32.75 23.4943 32.75 23.2109 32.6311 23.0466C32.5274 22.9033 32.368 22.8107 32.1923 22.7916C31.9908 22.7698 31.7452 22.9103 31.2539 23.1915L22.0154 28.4778C21.2814 28.8978 20.9144 29.1079 20.6474 29.403C20.4111 29.6641 20.2326 29.9722 20.1234 30.3071C20 30.6857 20 31.109 20 31.9556V42.7474C20 43.8057 20 44.3348 20.1542 44.808C20.2907 45.2267 20.5139 45.6118 20.8092 45.9382C21.143 46.3071 21.6017 46.5696 22.5193 47.0946L31.9846 52.5108C32.7186 52.9308 33.0856 53.1408 33.3526 53.4359C33.5889 53.697 33.7674 54.0051 33.8766 54.34C34 54.7186 34 55.1419 34 55.9885V66.5188C34 67.0854 34 67.3688 34.1189 67.5331C34.2226 67.6764 34.382 67.769 34.5577 67.7881C34.7592 67.8099 35.0048 67.6694 35.4961 67.3882L45.7423 61.5252C46.1093 61.3152 46.2928 61.2102 46.4263 61.0627C46.5444 60.9321 46.6337 60.7781 46.6883 60.6106C46.75 60.4213 46.75 60.2097 46.75 59.7864V49.285C46.75 48.2268 46.75 47.6977 46.5958 47.2245C46.4593 46.8058 46.2361 46.4207 45.9408 46.0943C45.607 45.7254 45.1483 45.4629 44.2307 44.9379L34.7654 39.5217C34.0314 39.1017 33.6644 38.8917 33.3974 38.5966C33.1611 38.3355 32.9826 38.0274 32.8734 37.6924C32.75 37.3139 32.75 36.8906 32.75 36.044V24.0609Z" fill="#20C997"></path> <path d="M36.7461 23.1915C36.2548 22.9103 36.0092 22.7698 35.8077 22.7916C35.632 22.8107 35.4726 22.9033 35.3689 23.0466C35.25 23.2109 35.25 23.4943 35.25 24.0609V35.7534C35.25 36.1767 35.25 36.3884 35.3117 36.5777C35.3663 36.7451 35.4556 36.8992 35.5737 37.0297C35.7072 37.1773 35.8907 37.2823 36.2577 37.4923L45.5193 42.7919C46.4235 43.3093 46.8756 43.568 47.3557 43.6693C47.7806 43.7589 48.2194 43.7589 48.6443 43.6693C49.1244 43.568 49.5765 43.3093 50.4807 42.7919L60.0154 37.336C60.7388 36.9221 61.1005 36.7151 61.4846 36.6341C61.8245 36.5624 62.1755 36.5624 62.5154 36.6341C62.8995 36.7151 63.2612 36.9221 63.9846 37.336L74.5039 43.3553C74.9952 43.6364 75.2408 43.777 75.4423 43.7551C75.618 43.7361 75.7774 43.6434 75.8811 43.5001C76 43.3358 76 43.0525 76 42.4858V30.7933C76 30.37 76 30.1584 75.9383 29.9691C75.8837 29.8016 75.7944 29.6476 75.6763 29.517C75.5428 29.3695 75.3593 29.2645 74.9923 29.0544L64.4807 23.0396C63.5765 22.5222 63.1244 22.2635 62.6443 22.1622C62.2194 22.0726 61.7806 22.0726 61.3557 22.1622C60.8756 22.2635 60.4235 22.5222 59.5193 23.0396L49.9846 28.4955C49.2612 28.9094 48.8995 29.1164 48.5154 29.1974C48.1755 29.2691 47.8245 29.2691 47.4846 29.1974C47.1005 29.1164 46.7388 28.9094 46.0154 28.4955L36.7461 23.1915Z" fill="#20C997"></path> <path d="M73.2209 47.2433C73.7188 46.9584 73.9678 46.8159 74.0511 46.6295C74.1237 46.4668 74.1237 46.2809 74.0511 46.1183C73.9678 45.9318 73.7188 45.7894 73.2209 45.5044L62.9923 39.6515C62.6306 39.4446 62.4498 39.3411 62.2577 39.3006C62.0878 39.2647 61.9122 39.2647 61.7423 39.3006C61.5502 39.3411 61.3694 39.4446 61.0077 39.6515L51.7693 44.9379C50.8518 45.4629 50.393 45.7254 50.0592 46.0943C49.7639 46.4207 49.5407 46.8058 49.4042 47.2245C49.25 47.6977 49.25 48.2268 49.25 49.285V60.0769C49.25 60.9235 49.25 61.3468 49.1266 61.7254C49.0174 62.0603 48.8389 62.3684 48.6026 62.6295C48.3356 62.9246 47.9686 63.1346 47.2346 63.5547L36.7792 69.5374C36.2812 69.8223 36.0323 69.9648 35.9489 70.1512C35.8763 70.3139 35.8763 70.4998 35.9489 70.6624C36.0323 70.8489 36.2812 70.9913 36.7792 71.2763L46.0154 76.5614C46.7388 76.9753 47.1005 77.1823 47.4846 77.2633C47.8245 77.335 48.1755 77.335 48.5154 77.2633C48.8995 77.1823 49.2612 76.9753 49.9846 76.5614L59.4807 71.1276C60.3983 70.6025 60.857 70.34 61.1908 69.9711C61.4861 69.6448 61.7093 69.2597 61.8458 68.841C62 68.3678 62 67.8386 62 66.7804V55.9885C62 55.1419 62 54.7186 62.1234 54.34C62.2326 54.0051 62.4111 53.697 62.6474 53.4359C62.9144 53.1408 63.2814 52.9308 64.0154 52.5108L73.2209 47.2433Z" fill="#20C997"></path> </mask> <g mask="url(#mask0_273_2030)"> <path d="M32.75 24.0609C32.75 23.4943 32.75 23.2109 32.6311 23.0466C32.5274 22.9033 32.368 22.8107 32.1923 22.7916C31.9908 22.7698 31.7452 22.9103 31.2539 23.1915L22.0154 28.4778C21.2814 28.8978 20.9144 29.1079 20.6474 29.403C20.4111 29.6641 20.2326 29.9722 20.1234 30.3071C20 30.6857 20 31.109 20 31.9556V42.7474C20 43.8057 20 44.3348 20.1542 44.808C20.2907 45.2267 20.5139 45.6118 20.8092 45.9382C21.143 46.3071 21.6017 46.5696 22.5193 47.0946L31.9846 52.5108C32.7186 52.9308 33.0856 53.1408 33.3526 53.4359C33.5889 53.697 33.7674 54.0051 33.8766 54.34C34 54.7186 34 55.1419 34 55.9885V66.5188C34 67.0854 34 67.3688 34.1189 67.5331C34.2226 67.6764 34.382 67.769 34.5577 67.7881C34.7592 67.8099 35.0048 67.6694 35.4961 67.3882L45.7423 61.5252C46.1093 61.3152 46.2928 61.2102 46.4263 61.0627C46.5444 60.9321 46.6337 60.7781 46.6883 60.6106C46.75 60.4213 46.75 60.2097 46.75 59.7864V49.285C46.75 48.2268 46.75 47.6977 46.5958 47.2245C46.4593 46.8058 46.2361 46.4207 45.9408 46.0943C45.607 45.7254 45.1483 45.4629 44.2307 44.9379L34.7654 39.5217C34.0314 39.1017 33.6644 38.8917 33.3974 38.5966C33.1611 38.3355 32.9826 38.0274 32.8734 37.6924C32.75 37.3139 32.75 36.8906 32.75 36.044V24.0609Z" fill="url(#paint0_linear_273_2030)"></path> <path d="M36.7461 23.1915C36.2548 22.9103 36.0092 22.7698 35.8077 22.7916C35.632 22.8107 35.4726 22.9033 35.3689 23.0466C35.25 23.2109 35.25 23.4943 35.25 24.0609V35.7534C35.25 36.1767 35.25 36.3884 35.3117 36.5777C35.3663 36.7451 35.4556 36.8992 35.5737 37.0297C35.7072 37.1773 35.8907 37.2823 36.2577 37.4923L45.5193 42.7919C46.4235 43.3093 46.8756 43.568 47.3557 43.6693C47.7806 43.7589 48.2194 43.7589 48.6443 43.6693C49.1244 43.568 49.5765 43.3093 50.4807 42.7919L60.0154 37.336C60.7388 36.9221 61.1005 36.7151 61.4846 36.6341C61.8245 36.5624 62.1755 36.5624 62.5154 36.6341C62.8995 36.7151 63.2612 36.9221 63.9846 37.336L74.5039 43.3553C74.9952 43.6364 75.2408 43.777 75.4423 43.7551C75.618 43.7361 75.7774 43.6434 75.8811 43.5001C76 43.3358 76 43.0525 76 42.4858V30.7933C76 30.37 76 30.1584 75.9383 29.9691C75.8837 29.8016 75.7944 29.6476 75.6763 29.517C75.5428 29.3695 75.3593 29.2645 74.9923 29.0544L64.4807 23.0396C63.5765 22.5222 63.1244 22.2635 62.6443 22.1622C62.2194 22.0726 61.7806 22.0726 61.3557 22.1622C60.8756 22.2635 60.4235 22.5222 59.5193 23.0396L49.9846 28.4955C49.2612 28.9094 48.8995 29.1164 48.5154 29.1974C48.1755 29.2691 47.8245 29.2691 47.4846 29.1974C47.1005 29.1164 46.7388 28.9094 46.0154 28.4955L36.7461 23.1915Z" fill="url(#paint1_linear_273_2030)"></path> <path d="M73.2209 47.2433C73.7188 46.9584 73.9678 46.8159 74.0511 46.6295C74.1237 46.4668 74.1237 46.2809 74.0511 46.1183C73.9678 45.9318 73.7188 45.7894 73.2209 45.5044L62.9923 39.6515C62.6306 39.4446 62.4498 39.3411 62.2577 39.3006C62.0878 39.2647 61.9122 39.2647 61.7423 39.3006C61.5502 39.3411 61.3694 39.4446 61.0077 39.6515L51.7693 44.9379C50.8518 45.4629 50.393 45.7254 50.0592 46.0943C49.7639 46.4207 49.5407 46.8058 49.4042 47.2245C49.25 47.6977 49.25 48.2268 49.25 49.285V60.0769C49.25 60.9235 49.25 61.3468 49.1266 61.7254C49.0174 62.0603 48.8389 62.3684 48.6026 62.6295C48.3356 62.9246 47.9686 63.1346 47.2346 63.5547L36.7792 69.5374C36.2812 69.8223 36.0323 69.9648 35.9489 70.1512C35.8763 70.3139 35.8763 70.4998 35.9489 70.6624C36.0323 70.8489 36.2812 70.9913 36.7792 71.2763L46.0154 76.5614C46.7388 76.9753 47.1005 77.1823 47.4846 77.2633C47.8245 77.335 48.1755 77.335 48.5154 77.2633C48.8995 77.1823 49.2612 76.9753 49.9846 76.5614L59.4807 71.1276C60.3983 70.6025 60.857 70.34 61.1908 69.9711C61.4861 69.6448 61.7093 69.2597 61.8458 68.841C62 68.3678 62 67.8386 62 66.7804V55.9885C62 55.1419 62 54.7186 62.1234 54.34C62.2326 54.0051 62.4111 53.697 62.6474 53.4359C62.9144 53.1408 63.2814 52.9308 64.0154 52.5108L73.2209 47.2433Z" fill="url(#paint2_linear_273_2030)"></path> </g> <defs> <linearGradient id="paint0_linear_273_2030" x1="23.9667" y1="23.7056" x2="63.4288" y2="76.0006" gradientUnits="userSpaceOnUse"> <stop stop-color="#20C997"></stop> <stop offset="0.572917" stop-color="#96C93D"></stop> <stop offset="1" stop-color="#FFD166"></stop> </linearGradient> <linearGradient id="paint1_linear_273_2030" x1="23.9667" y1="23.7056" x2="63.4288" y2="76.0006" gradientUnits="userSpaceOnUse"> <stop stop-color="#20C997"></stop> <stop offset="0.572917" stop-color="#96C93D"></stop> <stop offset="1" stop-color="#FFD166"></stop> </linearGradient> <linearGradient id="paint2_linear_273_2030" x1="23.9667" y1="23.7056" x2="63.4288" y2="76.0006" gradientUnits="userSpaceOnUse"> <stop stop-color="#20C997"></stop> <stop offset="0.572917" stop-color="#96C93D"></stop> <stop offset="1" stop-color="#FFD166"></stop> </linearGradient> </defs> </svg> 