<?xml version="1.0" encoding="UTF-8"?> <svg xmlns="http://www.w3.org/2000/svg" width="96" height="96" viewBox="0 0 96 96" fill="none"> <rect width="96" height="96" rx="24" fill="#0D091E"></rect> <path d="M29.8019 51.079L31.3337 39.5424L18.0259 30.3036L30.1848 34.4204L33.057 30.0164L43.5405 23.5061L66.6617 36.2394L67.8584 55.6745L57.5663 69.9874L49.4285 71.232L53.6411 63.525V56.1052L50.5774 50.3131L47.4659 48.2547L42.6788 53.1852V58.4029L38.945 61.8974L34.2059 62.4719L32.0996 63.6687L28.653 62.5677L27.2169 57.3977L29.8019 53.7597V51.079Z" fill="white"></path> <path d="M51.0561 30.2077C48.5189 29.6812 45.7424 29.8248 45.7424 29.8248C45.7424 29.8248 44.8329 34.0373 39.1843 35.1383C39.2321 35.1383 46.652 37.6754 51.0561 30.2077Z" fill="#94A6C3"></path> <path d="M53.3536 68.4076C56.4173 66.0141 58.7151 62.7111 59.7682 58.9773C59.8161 58.8337 60.247 58.5944 60.5341 58.4029C61.0128 58.1157 61.4916 57.8764 61.5873 57.4934C61.7787 56.3923 61.8745 55.2434 61.8745 54.0946C61.8745 53.6638 61.4436 53.233 61.0128 52.8022C60.6778 52.515 60.3427 52.1798 60.3427 51.9405C59.8639 47.5843 57.8535 43.5154 54.6461 40.5476L54.311 40.8826C57.4226 43.8026 59.4332 47.7758 59.8639 51.9884C59.9118 52.3713 60.2948 52.7543 60.6778 53.1372C61.0128 53.4244 61.3958 53.8553 61.3958 54.0468C61.3958 55.1478 61.3001 56.2488 61.1086 57.3498C61.0607 57.5412 60.6299 57.7327 60.2948 57.9241C59.8161 58.1635 59.3853 58.4029 59.2895 58.7858C58.1407 62.8548 55.5078 66.397 52.0133 68.6948C52.6356 67.3545 54.5983 62.9983 55.6515 60.7964L55.4599 53.7116L49.3804 47.8237L45.9338 48.3025L42.1521 54.4298C42.1521 54.4298 43.9233 56.6796 41.4341 59.3124C38.9927 61.8973 37.0779 62.4718 37.0779 62.4718L35.3067 61.5144C35.8333 60.8442 36.8864 59.8389 37.7002 59.1688C39.0884 58.0199 40.4767 57.9241 40.4767 56.6796C40.5246 54.0946 37.7481 54.8127 37.7481 54.8127L36.7429 55.77L36.312 59.3124L34.2058 61.9452L33.9664 61.8973L30.5198 61.1314C30.5198 61.1314 32.6261 60.0304 32.9612 58.7858C33.2962 57.5891 32.2909 53.616 32.243 53.3765C32.2909 53.4244 33.2484 54.2382 33.6792 55.5786C34.445 53.4723 35.4504 51.4618 35.7376 51.2703C36.0247 51.0788 39.9022 49.0205 39.9022 49.0205L38.6098 52.4192L39.5672 51.8926L41.8649 46.244C41.8649 46.244 44.1147 45.143 45.7902 45.143C48.8061 45.0952 53.2579 41.4092 51.2473 34.8032C51.8218 35.0425 61.7787 40.021 63.5021 49.7864C64.7945 57.3019 60.5341 64.3387 53.3536 68.4076Z" fill="#94A6C3"></path> <path d="M41.9609 31.2609C43.0618 29.9685 42.631 28.0537 42.631 28.0537L39.4238 32.7928C39.3758 32.7928 40.5726 32.8407 41.9609 31.2609Z" fill="#0A192B"></path> <path d="M31.1901 57.1587L31.573 55.2439C31.573 55.2439 29.9933 58.0202 29.8497 58.4032C29.7061 58.834 29.9455 59.6 30.5678 59.5521C31.1901 59.5042 31.956 58.5947 31.956 57.9246C31.956 57.0629 31.1901 57.1587 31.1901 57.1587Z" fill="#0A192B"></path> <path d="M59.6247 26.7135C59.6247 26.7135 62.0182 26.8092 64.5075 27.0964C58.9067 22.6924 53.5932 21.4 49.2849 21.4C43.349 21.4 39.3279 23.8413 39.0886 23.9849L40.9555 21.017C40.9555 21.017 33.4878 20.299 30.855 28.1974C30.1847 26.522 29.5624 24.0806 29.5624 24.0806C29.5624 24.0806 25.685 27.4794 27.5041 33.128C23.0522 31.5004 16.6855 29.2506 16.4461 29.2027C16.1111 29.1548 16.0153 29.2984 16.0153 29.2984C16.0153 29.2984 15.9196 29.4421 16.2068 29.6814C16.7334 30.1122 26.7861 37.5319 28.9881 38.9681C28.5093 40.6913 28.5093 41.5051 28.9881 42.3189C29.6582 43.4199 29.7061 43.9943 29.6104 44.8081C29.5146 45.6219 28.653 52.6588 28.4615 53.5204C28.27 54.382 26.2595 57.4456 26.3552 58.3552C26.4509 59.2648 27.6955 63.1421 28.7966 63.5729C29.6104 63.8602 31.6209 64.4825 32.9612 64.4825C33.4399 64.4825 33.8707 64.3867 34.0623 64.1953C34.8761 63.4773 35.1153 63.3336 35.6898 63.3336C35.7377 63.3336 35.7855 63.3336 35.8335 63.3336C36.0727 63.3336 36.36 63.3815 36.695 63.3815C37.461 63.3815 38.4663 63.2379 39.1843 62.5677C40.2375 61.5146 42.0565 60.0785 42.631 59.4083C43.349 58.4989 43.7319 57.2542 43.5404 56.0096C43.3969 54.8607 44.0192 53.8555 44.7372 52.8502C45.6467 51.6534 47.3222 49.4993 47.3222 49.4993C50.6252 51.9886 52.6836 55.7703 52.6836 59.9828C52.6836 67.4504 46.1733 73.4819 38.1312 73.4819C36.8866 73.4819 35.6898 73.3384 34.493 73.0512C38.179 74.3436 41.2906 74.7744 43.8277 74.7744C49.237 74.7744 52.1092 72.8118 52.1092 72.8118C52.1092 72.8118 51.1039 74.1043 49.4764 75.5882C49.5242 75.5882 49.5242 75.5882 49.5242 75.5882C58.4759 74.3436 62.8321 66.9717 62.8321 66.9717C62.8321 66.9717 62.497 69.3652 62.0661 70.9928C73.9856 62.0411 71.9752 50.8397 71.9273 50.4568C72.023 50.6003 73.2198 52.0364 73.8421 52.8023C75.7568 33.0801 59.6247 26.7135 59.6247 26.7135ZM41.2906 58.2116C41.0992 58.451 40.2853 59.169 39.7109 59.6955C39.1364 60.2221 38.5141 60.7487 38.0355 61.2273C37.844 61.4189 37.461 61.5146 36.8866 61.5146C36.695 61.5146 36.5036 61.5146 36.36 61.5146C36.2643 61.5146 36.1685 61.5146 36.0727 61.5146C35.977 61.5146 35.9292 61.5146 35.8813 61.5146C35.7377 61.5146 35.5941 61.5146 35.4504 61.5146C36.1685 60.5572 38.2747 58.3552 38.9929 57.8765C39.8545 57.3021 40.2853 56.7276 39.7587 55.7224C39.2322 54.7171 37.844 54.9565 37.844 54.9565C37.844 54.9565 38.6578 54.6214 39.3758 54.6214C38.4663 54.382 37.3174 54.6214 36.7909 55.1479C36.2164 55.6745 36.3121 57.5414 36.0727 58.7382C35.8335 59.9828 35.0196 60.6051 33.775 61.7539C33.1049 62.3762 32.6261 62.5677 32.2432 62.5677C31.4294 62.4241 30.472 62.1848 29.8018 61.9455C29.3232 61.3231 28.605 59.2648 28.4136 58.4031C28.5572 57.9244 29.1316 56.9192 29.4189 56.3447C29.9933 55.2437 30.3284 54.6214 30.4241 54.0469C30.6156 53.2331 31.2379 48.2068 31.4773 46.1006C32.0996 46.9144 32.9612 48.2547 32.7698 49.1164C34.158 47.1537 33.1527 45.2389 32.674 44.473C32.2432 43.7071 31.6687 42.1753 32.1475 40.5477C32.6261 38.9202 34.3495 34.4204 34.3495 34.4204C34.3495 34.4204 34.9239 35.4257 35.7377 35.2342C36.5515 35.0428 43.1096 25.1816 43.1096 25.1816C43.1096 25.1816 44.8809 29.059 43.0139 31.8834C41.0992 34.7077 39.2322 35.2342 39.2322 35.2342C39.2322 35.2342 41.865 35.7129 44.3064 33.9418C45.3116 36.2874 46.269 38.7287 46.3169 39.0638C46.1733 39.3988 44.2585 43.9943 44.067 44.2816C43.9713 44.3773 43.3012 44.5688 42.8224 44.6646C42.0087 44.9039 41.5299 45.0475 41.3384 45.1911C41.0033 45.4784 39.4715 49.6909 38.7535 51.7492C37.8918 51.9886 37.0301 52.4672 36.4078 53.4247C36.743 53.1852 37.7961 53.0417 38.562 52.9459C39.2322 52.8981 41.2906 53.999 41.8172 56.0575C41.8172 56.1054 41.8172 56.1054 41.8172 56.1532C41.9129 56.9192 41.6735 57.6372 41.2906 58.2116ZM36.7909 58.7861C37.2216 58.1637 37.1738 57.1106 37.2216 56.7755C37.2695 56.4404 37.3653 55.8182 37.7482 55.7224C38.1312 55.6266 39.0407 55.7703 39.0407 56.4404C39.0407 57.0627 38.3706 57.2063 37.8918 57.6372C37.5567 57.9723 36.8866 58.6903 36.7909 58.7861ZM55.8909 49.643C56.3696 47.2016 56.4175 45.0954 56.2738 43.372C58.1407 45.8613 59.2896 48.8771 59.6247 51.9886C59.6726 52.3716 60.0556 52.7545 60.4385 53.1375C60.7736 53.4247 61.1566 53.8076 61.1566 54.0469C61.1566 55.1479 61.0608 56.2489 60.8693 57.35C60.8215 57.4935 60.3907 57.733 60.0556 57.9244C59.5769 58.1637 59.1461 58.4031 59.0503 58.7861C57.9972 62.472 55.7473 65.7271 52.7315 68.0249C57.1833 63.3815 59.3375 55.7224 55.8909 49.643ZM52.875 68.4557C55.9867 66.0622 58.3801 62.7114 59.4333 58.9296C59.4811 58.7861 59.9119 58.5466 60.1992 58.3552C60.6779 58.1159 61.1566 57.8286 61.2524 57.4457C61.4438 56.3447 61.5395 55.1958 61.5395 54.0469C61.5395 53.6161 61.1087 53.1852 60.6779 52.7545C60.4385 52.4672 60.0556 52.1321 60.0556 51.8928C59.6726 48.3984 58.2844 45.0954 56.1302 42.3668C55.1729 36.6225 51.3433 34.8512 51.2475 34.8034C51.3433 34.947 53.8325 38.5373 52.1092 42.7498C50.338 47.0102 45.7904 46.3399 45.4075 46.3878C45.0244 46.3878 43.5404 48.3026 41.6735 51.845C41.4342 51.7492 40.4289 51.5099 39.2801 51.7013C40.1418 49.3079 41.4342 45.9091 41.6735 45.6219C41.7693 45.5261 42.4873 45.3347 42.9661 45.1911C43.8756 44.9518 44.3064 44.8081 44.45 44.6167C44.5458 44.473 45.0244 43.372 45.5032 42.2232C45.9339 42.2232 47.035 42.1274 47.1307 42.0795C47.2264 41.9839 48.1359 39.6382 48.1359 39.3511C48.1359 39.1116 46.269 34.4683 45.551 32.6972C45.8861 32.3142 46.2212 31.8355 46.5563 31.309C56.3696 32.3621 64.0287 40.6913 64.0287 50.7919C64.0287 58.5466 59.4811 65.2963 52.875 68.4557Z" fill="#1F4472"></path> <path d="M40.1417 42.6061C41.0511 41.553 40.5725 39.5903 38.8971 39.2553C39.3278 38.2499 39.9502 36.2395 39.9502 36.2395C39.9502 36.2395 35.0674 43.8986 34.6366 44.0422C34.2057 44.1858 33.7749 42.5103 33.7749 42.5103C32.8654 46.0048 35.3068 46.4835 35.594 45.3826C36.9343 45.0475 39.2321 43.6113 40.1417 42.6061Z" fill="#0A192B"></path> <path d="M35.9773 44.4732L38.4665 40.2129C38.4665 40.2129 39.9026 40.9309 39.1845 42.0798C38.275 43.4201 35.9773 44.4732 35.9773 44.4732Z" fill="#FFD923"></path> <path d="M66.7571 64.1953C66.0391 65.1528 65.2252 66.158 64.2678 67.1154C70.4431 55.2438 64.5551 44.3774 64.3157 43.9465C64.7466 44.3774 65.1774 44.8561 65.5603 45.2868C70.2995 50.5526 70.874 58.451 66.7571 64.1953Z" fill="#D82122"></path> <path d="M72.5016 48.9249C70.3475 43.1327 67.2838 38.2022 60.5342 33.7502C54.0239 29.4421 47.0349 29.7771 46.6519 29.825C46.6041 29.825 46.5562 29.825 46.5562 29.825C46.7955 29.7292 47.0349 29.6814 47.2742 29.6335C48.7582 29.1548 50.673 28.7719 52.5878 28.5325C57.6619 27.8145 62.7841 29.5377 66.2785 33.2237C66.3264 33.2716 66.3264 33.2716 66.3742 33.3195C70.3475 37.532 72.4059 42.7976 72.5016 48.9249Z" fill="#D82122"></path> <path d="M59.0022 25.2297C51.8697 23.8893 47.2741 24.5595 43.9711 25.8041C43.8754 25.4212 43.5403 24.6552 43.2531 24.0329C42.2477 25.2297 41.1946 26.6658 40.5245 27.5753C38.7054 28.8199 37.9395 30.0166 37.9395 30.0166C38.9926 26.4264 42.0563 23.7457 45.7901 23.0755C46.8432 22.8841 47.9921 22.7883 49.2368 22.7883C52.5398 22.8362 55.8428 23.65 59.0022 25.2297Z" fill="#D82122"></path> <path d="M32.6259 34.4206C27.0251 34.2291 28.892 27.7189 28.9878 27.3359C28.9878 27.3838 29.3707 32.458 32.6259 34.4206Z" fill="#D82122"></path> <path d="M38.131 22.6924C33.8227 25.2773 34.6844 31.4525 34.6844 31.4525C30.5676 25.1816 37.796 22.836 38.131 22.6924Z" fill="#D82122"></path> <path d="M31.0462 36.1437C31.3334 36.3831 31.6206 36.8138 31.2856 37.4362C31.094 37.7713 30.8068 37.7234 30.376 37.5319C29.8016 37.2446 26.3549 35.2342 23.2434 33.1758C26.7857 34.4204 30.376 35.7607 30.9505 36.0479C30.9505 36.0479 30.9983 36.0958 31.0462 36.1437Z" fill="white"></path> </svg> 