<?xml version="1.0" encoding="UTF-8"?> <svg xmlns="http://www.w3.org/2000/svg" width="96" height="96" viewBox="0 0 96 96" fill="none"> <rect width="96" height="96" rx="24" fill="#0D091E"></rect> <g clip-path="url(#clip0_273_2125)"> <path d="M72.9712 22.1091L51.2903 38.2373L55.2996 28.7219L72.9712 22.1091Z" fill="#E2761B" stroke="#E2761B" stroke-linecap="round" stroke-linejoin="round"></path> <path d="M22.9198 22.1091L44.4264 38.3901L40.6132 28.7219L22.9198 22.1091ZM65.1704 59.4943L59.396 68.355L71.7509 71.7596L75.3027 59.6907L65.1704 59.4943ZM20.6318 59.6907L24.1618 71.7596L36.5167 68.355L30.7423 59.4943L20.6318 59.6907Z" fill="#E4761B" stroke="#E4761B" stroke-linecap="round" stroke-linejoin="round"></path> <path d="M35.8195 44.5229L32.3767 49.7389L44.6444 50.2845L44.2086 37.0807L35.8195 44.5229ZM60.0717 44.5229L51.5736 36.928L51.2903 50.2845L63.5362 49.7389L60.0717 44.5229ZM36.5168 68.3551L43.8818 64.7541L37.5191 59.7781L36.5168 68.3551ZM52.0094 64.7541L59.3962 68.3551L58.372 59.7781L52.0094 64.7541Z" fill="#E4761B" stroke="#E4761B" stroke-linecap="round" stroke-linejoin="round"></path> <path d="M59.3962 68.3549L52.0095 64.7539L52.5978 69.5771L52.5324 71.6068L59.3962 68.3549ZM36.5168 68.3549L43.3807 71.6068L43.3371 69.5771L43.8818 64.7539L36.5168 68.3549Z" fill="#D7C1B3" stroke="#D7C1B3" stroke-linecap="round" stroke-linejoin="round"></path> <path d="M43.4895 56.5916L37.3447 54.7802L41.6809 52.7942L43.4895 56.5916ZM52.4015 56.5916L54.2101 52.7942L58.5681 54.7802L52.4015 56.5916Z" fill="#233447" stroke="#233447" stroke-linecap="round" stroke-linejoin="round"></path> <path d="M36.5168 68.355L37.5627 59.4943L30.7424 59.6907L36.5168 68.355ZM58.3502 59.4943L59.3961 68.355L65.1704 59.6907L58.3502 59.4943ZM63.5362 49.7388L51.2903 50.2844L52.4234 56.5916L54.2319 52.7942L58.5899 54.7802L63.5362 49.7388ZM37.3448 54.7802L41.7027 52.7942L43.4895 56.5916L44.6444 50.2844L32.3767 49.7388L37.3448 54.7802Z" fill="#CD6116" stroke="#CD6116" stroke-linecap="round" stroke-linejoin="round"></path> <path d="M32.3767 49.7388L37.5191 59.778L37.3448 54.7802L32.3767 49.7388ZM58.5899 54.7802L58.372 59.778L63.5362 49.7388L58.5899 54.7802ZM44.6444 50.2844L43.4896 56.5916L44.9277 64.0337L45.2545 54.2346L44.6444 50.2844ZM51.2903 50.2844L50.702 54.2128L50.9635 64.0337L52.4234 56.5916L51.2903 50.2844Z" fill="#E4751F" stroke="#E4751F" stroke-linecap="round" stroke-linejoin="round"></path> <path d="M52.4233 56.5917L50.9634 64.0338L52.0093 64.754L58.372 59.7781L58.5899 54.7803L52.4233 56.5917ZM37.3447 54.7803L37.519 59.7781L43.8817 64.754L44.9276 64.0338L43.4895 56.5917L37.3447 54.7803Z" fill="#F6851B" stroke="#F6851B" stroke-linecap="round" stroke-linejoin="round"></path> <path d="M52.5324 71.6068L52.5978 69.5771L52.053 69.097H43.8382L43.3371 69.5771L43.3807 71.6068L36.5168 68.355L38.9137 70.3192L43.7729 73.702H52.1184L56.9993 70.3192L59.3962 68.355L52.5324 71.6068Z" fill="#C0AD9E" stroke="#C0AD9E" stroke-linecap="round" stroke-linejoin="round"></path> <path d="M52.0093 64.7539L50.9634 64.0337H44.9276L43.8817 64.7539L43.3369 69.5771L43.8381 69.0969H52.0529L52.5976 69.5771L52.0093 64.7539Z" fill="#161616" stroke="#161616" stroke-linecap="round" stroke-linejoin="round"></path> <path d="M73.8864 39.2849L75.7385 30.3806L72.9712 22.1091L52.0093 37.6917L60.0716 44.5228L71.4677 47.8619L73.9953 44.9156L72.9058 44.1299L74.649 42.5368L73.2981 41.4892L75.0412 40.1579L73.8864 39.2849ZM20.1743 30.3806L22.0265 39.2849L20.8498 40.1579L22.593 41.4892L21.2638 42.5368L23.007 44.1299L21.9175 44.9156L24.4233 47.8619L35.8195 44.5228L43.8817 37.6917L22.9198 22.1091L20.1743 30.3806Z" fill="#763D16" stroke="#763D16" stroke-linecap="round" stroke-linejoin="round"></path> <path d="M71.4676 47.8619L60.0715 44.5228L63.5361 49.7388L58.3719 59.778L65.1704 59.6907H75.3027L71.4676 47.8619ZM35.8194 44.5228L24.4233 47.8619L20.6318 59.6907H30.7423L37.519 59.778L32.3766 49.7388L35.8194 44.5228ZM51.2902 50.2844L52.0093 37.6917L55.3213 28.7219H40.6132L43.8816 37.6917L44.6443 50.2844L44.9058 54.2564L44.9276 64.0338H50.9634L51.0069 54.2564L51.2902 50.2844Z" fill="#F6851B" stroke="#F6851B" stroke-linecap="round" stroke-linejoin="round"></path> </g> <defs> <clipPath id="clip0_273_2125"> <rect width="56" height="51.942" fill="white" transform="translate(20 22)"></rect> </clipPath> </defs> </svg> 