<?xml version="1.0" encoding="UTF-8"?> <svg xmlns="http://www.w3.org/2000/svg" width="96" height="96" viewBox="0 0 96 96" fill="none"> <rect width="96" height="96" rx="24" fill="#0D091E"></rect> <path d="M65.4728 34.5928C65.4665 34.803 65.4159 35.0095 65.3243 35.1989C65.2328 35.3882 65.1023 35.5561 64.9415 35.6917C64.7807 35.8272 64.5931 35.9273 64.3909 35.9854C64.1888 36.0436 63.9767 36.0584 63.7684 36.0291C61.7527 35.8094 59.7194 35.8038 57.7025 36.0123C53.633 36.436 50.2338 37.688 47.1099 38.8538L46.5449 39.062C43.2271 40.2877 40.1678 41.3433 36.5412 41.4271C34.9527 41.4547 33.3661 41.3046 31.811 40.9795C31.0899 40.8418 30.4257 40.4937 29.9021 39.9791C29.3785 39.4645 29.019 38.8064 28.869 38.0877C28.6349 36.8987 28.517 35.6897 28.5171 34.4779C28.5171 29.5772 30.4639 24.8773 33.9291 21.412C37.3944 17.9468 42.0943 16 46.995 16C51.8956 16 56.5955 17.9468 60.0608 21.412C63.5261 24.8773 65.4728 29.5772 65.4728 34.4779V34.5928Z" fill="url(#paint0_radial_273_1994)"></path> <path opacity="0.7" d="M30.1616 43.7754C28.7732 43.4426 27.5069 44.9316 28.1915 46.1859L46.3295 79.4384C46.3955 79.5599 46.4931 79.6612 46.6119 79.7319C46.7307 79.8025 46.8663 79.8398 47.0045 79.8398C47.1428 79.8398 47.2784 79.8025 47.3972 79.7319C47.516 79.6612 47.6136 79.5599 47.6796 79.4384L67.6991 42.7364C67.8709 42.4384 67.9697 42.1039 67.9875 41.7603C68.0053 41.4168 67.9415 41.0739 67.8015 40.7596C67.6614 40.4454 67.449 40.1688 67.1816 39.9524C66.9141 39.7359 66.5993 39.5859 66.2628 39.5144C63.5492 38.9426 60.764 38.7901 58.0041 39.0619C54.3248 39.4473 51.2679 40.5796 48.0937 41.755L47.5886 41.9417C44.266 43.1697 40.7806 44.4002 36.589 44.4959C34.4244 44.5362 32.2637 44.294 30.1616 43.7754Z" fill="url(#paint1_linear_273_1994)"></path> <path d="M46.9951 42.8059C46.9956 42.6175 47.0536 42.4338 47.1615 42.2794C47.2693 42.1249 47.4217 42.0071 47.5984 41.9417L48.1035 41.755C51.2777 40.5796 54.3274 39.4473 58.0139 39.0619C60.7737 38.7901 63.5589 38.9426 66.2725 39.5144C66.609 39.5859 66.9239 39.7359 67.1913 39.9524C67.4587 40.1688 67.6711 40.4454 67.8112 40.7596C67.9513 41.0739 68.015 41.4168 67.9972 41.7603C67.9794 42.1039 67.8806 42.4384 67.7088 42.7364L47.6797 79.4384C47.6138 79.5619 47.5149 79.6646 47.394 79.7352C47.2731 79.8058 47.135 79.8414 46.9951 79.8382V42.8059Z" fill="url(#paint2_linear_273_1994)"></path> <defs> <radialGradient id="paint0_radial_273_1994" cx="0" cy="0" r="1" gradientUnits="userSpaceOnUse" gradientTransform="translate(60.1687 23.1971) rotate(167.302) scale(70.7566 84.7761)"> <stop stop-color="white"></stop> <stop offset="0.12" stop-color="white" stop-opacity="0.95"></stop> <stop offset="1" stop-color="white" stop-opacity="0"></stop> </radialGradient> <linearGradient id="paint1_linear_273_1994" x1="47.9908" y1="39.9046" x2="47.9908" y2="79.8406" gradientUnits="userSpaceOnUse"> <stop stop-color="white"></stop> <stop offset="1" stop-color="white" stop-opacity="0.5"></stop> </linearGradient> <linearGradient id="paint2_linear_273_1994" x1="57.4896" y1="38.9279" x2="57.4896" y2="96.8942" gradientUnits="userSpaceOnUse"> <stop stop-color="white"></stop> <stop offset="1" stop-color="white" stop-opacity="0"></stop> </linearGradient> </defs> </svg> 